<svg width="275" height="170" viewBox="0 0 275 170" fill="none" xmlns="http://www.w3.org/2000/svg">
<path d="M68.398 25.65C64.723 25.65 61.573 28.8 61.748 32.65C61.748 54 61.748 75.175 61.748 96.525C61.748 119.275 80.298 138 103.223 138C125.973 138 144.698 119.275 144.698 96.525C144.698 75.175 144.698 35.975 144.698 32.65C144.698 28.8 141.723 25.65 137.873 25.65C134.023 25.65 130.873 28.8 130.873 32.65C130.873 35.975 130.873 75.175 130.873 96.525C130.873 111.925 118.623 124.175 103.223 124.175C87.823 124.175 75.398 111.925 75.398 96.525C75.398 75.175 75.398 54 75.398 32.65C75.398 28.8 72.248 25.65 68.398 25.65Z" fill="white"/>
<path d="M154.875 102.1C153.375 102.1 152.175 103.3 152.175 104.8V127.075C152.175 128.575 153.375 130 154.875 130C156.375 130 157.575 128.575 157.575 127.075V115.975C157.575 111.25 161.325 107.5 166.05 107.5C167.55 107.5 168.75 106.3 168.75 104.8C168.75 103.3 167.55 102.1 166.05 102.1C162.9 102.1 159.975 103.15 157.575 104.95V104.8C157.575 103.3 156.375 102.1 154.875 102.1ZM172.908 127.3C172.908 128.8 174.108 130 175.608 130C177.108 130 178.308 128.8 178.308 127.3V105.025C178.308 103.525 177.108 102.325 175.608 102.325C174.108 102.325 172.908 103.525 172.908 105.025V127.3ZM172.158 97.075C172.158 99.025 173.733 100.6 175.608 100.6C177.558 100.6 179.058 99.025 179.058 97.075C179.058 95.2 177.558 93.625 175.608 93.625C173.733 93.625 172.158 95.2 172.158 97.075ZM196.21 102.325C188.635 102.325 182.71 108.625 182.71 116.125C182.71 123.7 188.635 130 196.21 130C200.26 130 203.11 128.875 204.91 127.525C206.71 126.25 206.785 126.175 207.61 124.6C207.835 124.15 207.91 123.7 207.91 123.325C207.91 121.75 206.485 120.625 205.06 120.625C204.16 120.625 203.26 121.075 202.735 122.125C201.91 123.775 202.66 122.5 201.685 123.1C200.785 123.775 199.21 124.6 196.21 124.6C192.46 124.6 189.685 122.2 188.635 118.9H207.01C208.51 118.9 209.785 117.625 209.785 116.125C209.785 108.625 203.86 102.325 196.21 102.325ZM196.21 107.725C199.96 107.725 202.81 110.125 203.86 113.425H188.635C189.685 110.125 192.46 107.725 196.21 107.725ZM213.845 127.3C213.845 128.8 215.045 130 216.545 130C218.045 130 219.245 128.8 219.245 127.3V94.975C219.245 93.475 218.045 92.275 216.545 92.275C215.045 92.275 213.845 93.475 213.845 94.975V127.3Z" fill="white"/>
<path d="M152.175 92.3C152.175 93.8 153.375 95 154.875 95C156.375 95 157.575 93.8 157.575 92.3V59.975C157.575 58.475 156.375 57.275 154.875 57.275C153.375 57.275 152.175 58.475 152.175 59.975V92.3ZM162.288 92.3C162.288 93.8 163.488 95 164.988 95C166.488 95 167.688 93.8 167.688 92.3V70.025C167.688 68.525 166.488 67.325 164.988 67.325C163.488 67.325 162.288 68.525 162.288 70.025V92.3ZM161.538 62.075C161.538 64.025 163.113 65.6 164.988 65.6C166.938 65.6 168.438 64.025 168.438 62.075C168.438 60.2 166.938 58.625 164.988 58.625C163.113 58.625 161.538 60.2 161.538 62.075ZM174.415 83.975C173.065 83.975 171.79 85.175 171.79 86.675C171.79 86.825 171.79 87.05 171.79 87.2C171.79 87.425 172.09 88.85 173.14 90.575C173.815 91.475 174.64 92.525 175.915 93.275C177.49 94.325 179.59 95 182.14 95C184.465 95 186.565 94.475 188.29 93.275C190.465 91.85 191.815 89.45 191.815 86.75C191.815 85.25 191.515 83.9 190.915 82.7C190.165 81.275 188.965 80.15 187.69 79.475C185.89 78.5 184.015 78.05 182.215 78.05C180.79 78.05 179.59 77.45 178.99 76.625C178.765 76.325 178.54 75.875 178.54 75.275C178.54 74.6 178.765 74.15 178.99 73.85C179.59 73.175 180.715 72.725 181.99 72.725C183.415 72.725 184.24 73.1 184.69 73.4C185.065 73.7 185.215 73.925 185.365 74.075C185.815 74.9 186.715 75.5 187.765 75.5C189.265 75.5 190.465 74.3 190.465 72.875C190.465 72.5 190.39 72.125 190.165 71.675C190.09 71.45 189.64 70.55 188.59 69.65C187.315 68.45 185.14 67.325 181.99 67.325C178.84 67.325 176.365 68.525 174.79 70.4C173.74 71.75 173.14 73.4 173.14 75.275C173.14 77 173.665 78.65 174.64 79.925C176.215 81.95 178.69 83.45 181.765 83.45C183.19 83.45 184.39 83.825 185.14 84.2C185.59 84.5 185.89 84.8 186.115 85.175C186.265 85.475 186.415 86 186.415 86.75C186.415 87.35 186.19 87.8 185.89 88.25C185.215 89.075 183.865 89.6 182.14 89.6C180.565 89.6 179.59 89.225 178.915 88.775C178.39 88.4 178.015 88.025 177.715 87.575C177.265 86.9 177.115 86.3 177.115 86.225C176.89 84.95 175.765 83.975 174.415 83.975ZM208.954 67.325C201.379 67.325 195.454 73.625 195.454 81.125C195.454 88.7 201.379 95 208.954 95C213.004 95 215.854 93.875 217.654 92.525C219.454 91.25 219.529 91.175 220.354 89.6C220.579 89.15 220.654 88.7 220.654 88.325C220.654 86.75 219.229 85.625 217.804 85.625C216.904 85.625 216.004 86.075 215.479 87.125C214.654 88.775 215.404 87.5 214.429 88.1C213.529 88.775 211.954 89.6 208.954 89.6C205.204 89.6 202.429 87.2 201.379 83.9H219.754C221.254 83.9 222.529 82.625 222.529 81.125C222.529 73.625 216.604 67.325 208.954 67.325ZM208.954 72.725C212.704 72.725 215.554 75.125 216.604 78.425H201.379C202.429 75.125 205.204 72.725 208.954 72.725ZM228.614 83.975C227.264 83.975 225.989 85.175 225.989 86.675C225.989 86.825 225.989 87.05 225.989 87.2C225.989 87.425 226.289 88.85 227.339 90.575C228.014 91.475 228.839 92.525 230.114 93.275C231.689 94.325 233.789 95 236.339 95C238.664 95 240.764 94.475 242.489 93.275C244.664 91.85 246.014 89.45 246.014 86.75C246.014 85.25 245.714 83.9 245.114 82.7C244.364 81.275 243.164 80.15 241.889 79.475C240.089 78.5 238.214 78.05 236.414 78.05C234.989 78.05 233.789 77.45 233.189 76.625C232.964 76.325 232.739 75.875 232.739 75.275C232.739 74.6 232.964 74.15 233.189 73.85C233.789 73.175 234.914 72.725 236.189 72.725C237.614 72.725 238.439 73.1 238.889 73.4C239.264 73.7 239.414 73.925 239.564 74.075C240.014 74.9 240.914 75.5 241.964 75.5C243.464 75.5 244.664 74.3 244.664 72.875C244.664 72.5 244.589 72.125 244.364 71.675C244.289 71.45 243.839 70.55 242.789 69.65C241.514 68.45 239.339 67.325 236.189 67.325C233.039 67.325 230.564 68.525 228.989 70.4C227.939 71.75 227.339 73.4 227.339 75.275C227.339 77 227.864 78.65 228.839 79.925C230.414 81.95 232.889 83.45 235.964 83.45C237.389 83.45 238.589 83.825 239.339 84.2C239.789 84.5 240.089 84.8 240.314 85.175C240.464 85.475 240.614 86 240.614 86.75C240.614 87.35 240.389 87.8 240.089 88.25C239.414 89.075 238.064 89.6 236.339 89.6C234.764 89.6 233.789 89.225 233.114 88.775C232.589 88.4 232.214 88.025 231.914 87.575C231.464 86.9 231.314 86.3 231.314 86.225C231.089 84.95 229.964 83.975 228.614 83.975Z" fill="white"/>
<circle cx="82" cy="10" r="10" fill="white"/>
<circle cx="125" cy="10" r="10" fill="white"/>
</svg>
