<svg width="150" height="150" viewBox="0 0 150 150" fill="none" xmlns="http://www.w3.org/2000/svg">
<path d="M137.97 51.3988C141.98 49.8963 146.49 51.9225 147.571 56.0652C151.646 71.6813 150.59 88.273 144.438 103.343C137.307 120.816 123.849 134.958 106.752 142.948C89.6531 150.938 70.1717 152.188 52.1929 146.448C34.2141 140.709 19.0598 128.403 9.75326 111.985C0.446735 95.5664 -2.3279 76.2429 1.98289 57.8691C6.29368 39.4954 17.373 23.4223 33.0105 12.8563C48.6481 2.29023 67.6944 -1.99197 86.3494 0.863939C102.439 3.32703 117.217 10.9434 128.523 22.461C131.521 25.5164 130.944 30.4271 127.595 33.0951C124.246 35.763 119.401 35.1673 116.32 32.1938C107.509 23.6881 96.2333 18.0621 84.0031 16.1899C69.2047 13.9244 54.0958 17.3213 41.6909 25.703C29.2861 34.0848 20.4971 46.8352 17.0774 61.4105C13.6578 75.9855 15.8589 91.3149 23.2415 104.339C30.6241 117.363 42.6457 127.125 56.9077 131.678C71.1699 136.231 86.6244 135.239 100.188 128.901C113.751 122.563 124.426 111.345 130.084 97.4841C134.76 86.0289 135.724 73.4647 132.952 61.5355C131.983 57.3652 133.961 52.9015 137.97 51.3988Z" fill="url(#paint0_linear_103_11)"/>
<path d="M62.0811 104.24L61.1331 103.424C60.7731 103.656 60.3851 103.836 59.9691 103.964C59.5611 104.092 59.1291 104.156 58.6731 104.156C58.0651 104.156 57.4931 104.044 56.9571 103.82C56.4211 103.588 55.9531 103.276 55.5531 102.884C55.1611 102.492 54.8491 102.032 54.6171 101.504C54.3931 100.976 54.2811 100.408 54.2811 99.8C54.2811 99.192 54.3931 98.624 54.6171 98.096C54.8491 97.568 55.1611 97.108 55.5531 96.716C55.9531 96.324 56.4211 96.016 56.9571 95.792C57.4931 95.56 58.0651 95.444 58.6731 95.444C59.2811 95.444 59.8531 95.56 60.3891 95.792C60.9251 96.016 61.3891 96.324 61.7811 96.716C62.1811 97.108 62.4931 97.568 62.7171 98.096C62.9491 98.624 63.0651 99.192 63.0651 99.8C63.0651 100.288 62.9891 100.752 62.8371 101.192C62.6931 101.624 62.4851 102.02 62.2131 102.38L63.0651 103.112L62.0811 104.24ZM61.2531 99.8C61.2531 99.432 61.1851 99.088 61.0491 98.768C60.9211 98.448 60.7411 98.168 60.5091 97.928C60.2771 97.688 60.0011 97.5 59.6811 97.364C59.3691 97.228 59.0331 97.16 58.6731 97.16C58.3131 97.16 57.9731 97.228 57.6531 97.364C57.3411 97.5 57.0691 97.688 56.8371 97.928C56.6051 98.168 56.4211 98.448 56.2851 98.768C56.1571 99.088 56.0931 99.432 56.0931 99.8C56.0931 100.168 56.1571 100.512 56.2851 100.832C56.4211 101.152 56.6051 101.432 56.8371 101.672C57.0691 101.912 57.3411 102.1 57.6531 102.236C57.9731 102.372 58.3131 102.44 58.6731 102.44C59.0731 102.44 59.4291 102.364 59.7411 102.212L58.8891 101.468L59.8731 100.352L60.8691 101.216C60.9891 101.008 61.0811 100.788 61.1451 100.556C61.2171 100.316 61.2531 100.064 61.2531 99.8ZM68.1825 98.072H69.9345V104H68.1825V103.244C68.0065 103.524 67.7705 103.748 67.4745 103.916C67.1865 104.076 66.8465 104.156 66.4545 104.156C65.7745 104.156 65.2425 103.94 64.8585 103.508C64.4745 103.076 64.2825 102.484 64.2825 101.732V98.072H66.0345V101.312C66.0345 101.704 66.1225 102.008 66.2985 102.224C66.4825 102.44 66.7425 102.548 67.0785 102.548C67.4145 102.548 67.6825 102.432 67.8825 102.2C68.0825 101.96 68.1825 101.628 68.1825 101.204V98.072ZM77.5632 98.072V104H75.8472V103.208C75.6392 103.512 75.3632 103.744 75.0192 103.904C74.6832 104.064 74.3192 104.144 73.9272 104.144C73.5272 104.144 73.1552 104.064 72.8112 103.904C72.4752 103.744 72.1792 103.528 71.9232 103.256C71.6752 102.976 71.4792 102.648 71.3352 102.272C71.1912 101.888 71.1192 101.476 71.1192 101.036C71.1192 100.596 71.1912 100.188 71.3352 99.812C71.4792 99.436 71.6752 99.108 71.9232 98.828C72.1792 98.548 72.4752 98.328 72.8112 98.168C73.1552 98.008 73.5272 97.928 73.9272 97.928C74.3192 97.928 74.6832 98.004 75.0192 98.156C75.3632 98.308 75.6392 98.536 75.8472 98.84V98.072H77.5632ZM72.8592 101.036C72.8592 101.252 72.8992 101.452 72.9792 101.636C73.0592 101.82 73.1672 101.984 73.3032 102.128C73.4392 102.264 73.5992 102.372 73.7832 102.452C73.9672 102.532 74.1672 102.572 74.3832 102.572C74.5992 102.572 74.7992 102.532 74.9832 102.452C75.1672 102.372 75.3272 102.264 75.4632 102.128C75.5992 101.984 75.7072 101.82 75.7872 101.636C75.8672 101.452 75.9072 101.252 75.9072 101.036C75.9072 100.82 75.8672 100.62 75.7872 100.436C75.7072 100.252 75.5992 100.092 75.4632 99.956C75.3272 99.812 75.1672 99.7 74.9832 99.62C74.7992 99.54 74.5992 99.5 74.3832 99.5C74.1672 99.5 73.9672 99.54 73.7832 99.62C73.5992 99.7 73.4392 99.812 73.3032 99.956C73.1672 100.092 73.0592 100.252 72.9792 100.436C72.8992 100.62 72.8592 100.82 72.8592 101.036ZM81.0518 99.32C80.8918 99.32 80.7598 99.36 80.6558 99.44C80.5518 99.512 80.4998 99.608 80.4998 99.728C80.4998 99.944 80.6638 100.096 80.9918 100.184L81.7358 100.376C82.2958 100.52 82.7198 100.744 83.0078 101.048C83.3038 101.344 83.4518 101.704 83.4518 102.128C83.4518 102.424 83.3918 102.696 83.2718 102.944C83.1518 103.192 82.9838 103.408 82.7678 103.592C82.5598 103.768 82.3078 103.904 82.0118 104C81.7238 104.104 81.4078 104.156 81.0638 104.156C80.4718 104.156 79.9558 104.028 79.5158 103.772C79.0758 103.516 78.7558 103.16 78.5558 102.704L79.9718 101.924C80.0838 102.172 80.2398 102.368 80.4398 102.512C80.6398 102.656 80.8518 102.728 81.0758 102.728C81.2598 102.728 81.4078 102.688 81.5198 102.608C81.6398 102.528 81.6998 102.416 81.6998 102.272C81.6998 102.064 81.5198 101.916 81.1598 101.828L80.4638 101.66C79.3358 101.396 78.7718 100.788 78.7718 99.836C78.7718 99.556 78.8278 99.3 78.9398 99.068C79.0518 98.828 79.2078 98.624 79.4078 98.456C79.6078 98.288 79.8478 98.156 80.1278 98.06C80.4158 97.964 80.7278 97.916 81.0638 97.916C81.3198 97.916 81.5678 97.952 81.8078 98.024C82.0478 98.088 82.2718 98.18 82.4798 98.3C82.6878 98.42 82.8718 98.564 83.0318 98.732C83.1918 98.9 83.3198 99.088 83.4158 99.296L81.9878 100.052C81.8998 99.828 81.7678 99.652 81.5918 99.524C81.4158 99.388 81.2358 99.32 81.0518 99.32ZM90.6765 98.072V104H88.9605V103.208C88.7525 103.512 88.4765 103.744 88.1325 103.904C87.7965 104.064 87.4325 104.144 87.0405 104.144C86.6405 104.144 86.2685 104.064 85.9245 103.904C85.5885 103.744 85.2925 103.528 85.0365 103.256C84.7885 102.976 84.5925 102.648 84.4485 102.272C84.3045 101.888 84.2325 101.476 84.2325 101.036C84.2325 100.596 84.3045 100.188 84.4485 99.812C84.5925 99.436 84.7885 99.108 85.0365 98.828C85.2925 98.548 85.5885 98.328 85.9245 98.168C86.2685 98.008 86.6405 97.928 87.0405 97.928C87.4325 97.928 87.7965 98.004 88.1325 98.156C88.4765 98.308 88.7525 98.536 88.9605 98.84V98.072H90.6765ZM85.9725 101.036C85.9725 101.252 86.0125 101.452 86.0925 101.636C86.1725 101.82 86.2805 101.984 86.4165 102.128C86.5525 102.264 86.7125 102.372 86.8965 102.452C87.0805 102.532 87.2805 102.572 87.4965 102.572C87.7125 102.572 87.9125 102.532 88.0965 102.452C88.2805 102.372 88.4405 102.264 88.5765 102.128C88.7125 101.984 88.8205 101.82 88.9005 101.636C88.9805 101.452 89.0205 101.252 89.0205 101.036C89.0205 100.82 88.9805 100.62 88.9005 100.436C88.8205 100.252 88.7125 100.092 88.5765 99.956C88.4405 99.812 88.2805 99.7 88.0965 99.62C87.9125 99.54 87.7125 99.5 87.4965 99.5C87.2805 99.5 87.0805 99.54 86.8965 99.62C86.7125 99.7 86.5525 99.812 86.4165 99.956C86.2805 100.092 86.1725 100.252 86.0925 100.436C86.0125 100.62 85.9725 100.82 85.9725 101.036ZM95.9531 99.776C95.8571 99.728 95.7091 99.704 95.5091 99.704C95.0211 99.704 94.6411 99.872 94.3691 100.208C94.0971 100.544 93.9611 101.004 93.9611 101.588V104H92.2211V98.072H93.9491V99.044C94.1091 98.7 94.3371 98.432 94.6331 98.24C94.9291 98.04 95.2691 97.94 95.6531 97.94C95.7171 97.94 95.7771 97.944 95.8331 97.952C95.8971 97.96 95.9371 97.968 95.9531 97.976V99.776Z" fill="url(#paint1_linear_103_11)"/>
<g clip-path="url(#clip0_103_11)">
<path d="M78.6312 65C78.6312 65.9625 78.2489 66.8856 77.5683 67.5662C76.8877 68.2468 75.9646 68.6292 75.0021 68.6292C74.0396 68.6292 73.1165 68.2468 72.4359 67.5662C71.7553 66.8856 71.3729 65.9625 71.3729 65C71.3729 64.0375 71.7553 63.1144 72.4359 62.4338C73.1165 61.7532 74.0396 61.3708 75.0021 61.3708C75.9646 61.3708 76.8877 61.7532 77.5683 62.4338C78.2489 63.1144 78.6312 64.0375 78.6312 65ZM90.2667 61.5625L92.9062 60.0375C92.4942 58.5203 91.8915 57.0614 91.1125 55.6958C90.3229 54.3381 89.3646 53.0857 88.2604 51.9687L84.0646 54.3917C82.771 53.2854 81.2862 52.4247 79.6833 51.8521C78.2834 53.2574 77.1366 54.8939 76.2937 56.6896C80.9646 56.3729 85.7875 58.0646 90.2667 61.5625ZM70.3458 79.9375V82.9875C71.8657 83.3882 73.4303 83.5947 75.0021 83.6021C76.5728 83.5979 78.1366 83.3949 79.6562 82.9979V78.1521C81.2601 77.5852 82.747 76.7302 84.0437 75.6292C83.527 73.7142 82.6834 71.9028 81.55 70.275C79.4896 74.4771 75.6125 77.8083 70.3458 79.9375ZM61.275 67.5167C63.2479 68.0312 65.2208 68.2042 67.1604 68.0333C64.5458 64.1479 63.5979 59.125 64.3896 53.5L61.75 51.9729C60.6429 53.0887 59.6818 54.3403 58.8896 55.6979C58.1084 57.0605 57.5029 58.5165 57.0875 60.0312L61.2833 62.4542C60.9723 64.1271 60.9695 65.8427 61.275 67.5167ZM88.7187 67.5437C89.0297 65.8708 89.0325 64.1552 88.7271 62.4813C86.8104 61.9713 84.82 61.7965 82.8438 61.9646C85.4542 65.85 86.4021 70.8729 85.6104 76.5L88.25 78.025C89.3578 76.9093 90.3196 75.6577 91.1125 74.3C91.8937 72.9374 92.4992 71.4814 92.9146 69.9667L88.7187 67.5437ZM59.7354 68.4375L57.0958 69.9604C57.5079 71.4776 58.1106 72.9365 58.8896 74.3021C59.6792 75.6598 60.6375 76.9121 61.7417 78.0292L65.9375 75.6042C67.2305 76.7101 68.7146 77.5708 70.3167 78.1437C71.7176 76.7388 72.8651 75.1022 73.7083 73.3063C69.0375 73.6229 64.2146 71.9354 59.7354 68.4375ZM79.6562 50.0604V47.0125C78.1364 46.6111 76.5719 46.4039 75 46.3958C73.4293 46.4 71.8655 46.603 70.3458 47V51.8458C68.7418 52.4134 67.2549 53.2691 65.9583 54.3708C66.5 56.3375 67.3333 58.1333 68.4521 59.725C70.5125 55.5208 74.3896 52.1896 79.6562 50.0604ZM100 65C100 78.8062 88.8062 90 75 90C61.1937 90 50 78.8062 50 65C50 51.1937 61.1937 40 75 40C88.8062 40 100 51.1937 100 65ZM96.8021 65C96.8021 52.9792 87.0208 43.1979 75 43.1979C62.9792 43.1979 53.1979 52.9792 53.1979 65C53.1979 77.0208 62.9792 86.8021 75 86.8021C87.0208 86.8021 96.8021 77.0208 96.8021 65Z" fill="url(#paint2_linear_103_11)"/>
</g>
<defs>
<linearGradient id="paint0_linear_103_11" x1="-9.14307" y1="67.0697" x2="167.738" y2="67.7193" gradientUnits="userSpaceOnUse">
<stop stop-color="#AA367C"/>
<stop offset="1" stop-color="#4A2FBD"/>
</linearGradient>
<linearGradient id="paint1_linear_103_11" x1="46.9523" y1="98.9426" x2="105.909" y2="99.4839" gradientUnits="userSpaceOnUse">
<stop stop-color="#AA367C"/>
<stop offset="1" stop-color="#4A2FBD"/>
</linearGradient>
<linearGradient id="paint2_linear_103_11" x1="46.9523" y1="62.3565" x2="105.913" y2="62.573" gradientUnits="userSpaceOnUse">
<stop stop-color="#AA367C"/>
<stop offset="1" stop-color="#4A2FBD"/>
</linearGradient>
<clipPath id="clip0_103_11">
<rect width="50" height="50" fill="white" transform="translate(50 40)"/>
</clipPath>
</defs>
</svg>
