<svg width="150" height="150" viewBox="0 0 150 150" fill="none" xmlns="http://www.w3.org/2000/svg">
<g clip-path="url(#clip0_2_12)">
<path d="M147.571 56.0649C146.49 51.9222 141.979 49.896 137.97 51.3985C133.961 52.9012 131.983 57.3649 132.952 61.5352C135.723 73.4644 134.759 86.0286 130.084 97.4838C124.426 111.345 113.751 122.563 100.187 128.901C86.6242 135.239 71.1696 136.231 56.9075 131.678C42.6454 127.125 30.6239 117.363 23.2412 104.339C15.8587 91.3146 13.6576 75.9852 17.0772 61.4102C20.4968 46.8349 29.2858 34.0845 41.6907 25.7027C54.0956 17.321 69.2044 13.924 84.0029 16.1896C96.233 18.0618 107.509 23.6878 116.32 32.1935C119.401 35.167 124.246 35.7627 127.595 33.0948C130.943 30.4268 131.521 25.5161 128.523 22.4607C117.217 10.9431 102.439 3.32672 86.3492 0.863634C67.6941 -1.99228 48.6479 2.28992 33.0103 12.856C17.3727 23.422 6.29344 39.4951 1.98265 57.8688C-2.32815 76.2426 0.44649 95.5661 9.75301 111.984C19.0596 128.403 34.2138 140.709 52.1926 146.448C70.1715 152.187 89.6529 150.937 106.751 142.948C123.849 134.958 137.307 120.816 144.438 103.343C150.59 88.2727 151.646 71.681 147.571 56.0649Z" fill="url(#paint0_linear_2_12)"/>
<path d="M61.7277 104L64.9797 95.6H63.4917L61.1997 101.732L58.8957 95.6H57.3717L60.6237 104H61.7277ZM69.4705 101.216C69.4705 102.224 68.9305 102.86 68.1025 102.86C67.2865 102.86 66.8305 102.308 66.8305 101.396V98.12H65.4385V101.66C65.4385 103.196 66.2785 104.144 67.6825 104.144C68.4985 104.144 69.0985 103.784 69.4705 103.22V104H70.8625V98.12H69.4705V101.216ZM76.7766 102.08C76.4406 102.596 76.0446 102.968 75.2766 102.968C74.4006 102.968 73.6446 102.332 73.5846 101.48H78.1086C78.1206 101.312 78.1206 101.168 78.1206 101.06C78.1206 99.296 76.9086 97.976 75.1926 97.976C73.5006 97.976 72.2046 99.296 72.2046 101.06C72.2046 102.872 73.4766 104.144 75.2646 104.144C76.5126 104.144 77.4246 103.544 77.9166 102.62L76.7766 102.08ZM73.5966 100.472C73.6926 99.8 74.3406 99.116 75.1686 99.116C76.0206 99.116 76.6446 99.692 76.7406 100.472H73.5966ZM86.744 101.396V95.6H85.304V101.384C85.304 102.284 84.896 102.8 84.14 102.8C83.528 102.8 83.084 102.404 82.796 101.732L81.572 102.404C81.992 103.496 82.928 104.144 84.14 104.144C85.748 104.144 86.744 103.088 86.744 101.396ZM87.9278 102.644C88.2638 103.556 89.1038 104.144 90.2078 104.144C91.3598 104.144 92.3678 103.448 92.3678 102.248C92.3678 101.468 91.9238 100.904 90.8198 100.532L90.1238 100.304C89.6798 100.16 89.4638 99.944 89.4638 99.668C89.4638 99.332 89.7758 99.128 90.1718 99.128C90.6158 99.128 90.9638 99.44 91.1918 99.908L92.3078 99.308C91.9358 98.492 91.1318 97.976 90.1718 97.976C89.0678 97.976 88.1438 98.672 88.1438 99.776C88.1438 100.592 88.6478 101.156 89.6438 101.48L90.3518 101.708C90.8198 101.852 91.0238 102.02 91.0238 102.344C91.0238 102.764 90.6638 102.956 90.2318 102.956C89.7038 102.956 89.2598 102.596 89.0558 102.056L87.9278 102.644Z" fill="url(#paint1_linear_2_12)"/>
<path d="M87.9781 46.2797H80.4688L75 54.9312L70.3125 46.2797H53.125L75 83.75L96.875 46.2797H87.9781ZM58.5641 49.4047H63.8187L75 68.7594L86.1719 49.4047H91.4266L75.0016 77.5484L58.5641 49.4047Z" fill="url(#paint2_linear_2_12)"/>
</g>
<defs>
<linearGradient id="paint0_linear_2_12" x1="-9.14331" y1="67.0694" x2="167.738" y2="67.719" gradientUnits="userSpaceOnUse">
<stop stop-color="#AA367C"/>
<stop offset="1" stop-color="#4A2FBD"/>
</linearGradient>
<linearGradient id="paint1_linear_2_12" x1="46.9523" y1="98.9426" x2="105.909" y2="99.4839" gradientUnits="userSpaceOnUse">
<stop stop-color="#AA367C"/>
<stop offset="1" stop-color="#4A2FBD"/>
</linearGradient>
<linearGradient id="paint2_linear_2_12" x1="50.4583" y1="63.0338" x2="102.048" y2="63.255" gradientUnits="userSpaceOnUse">
<stop stop-color="#AA367C"/>
<stop offset="1" stop-color="#4A2FBD"/>
</linearGradient>
<clipPath id="clip0_2_12">
<rect width="150" height="150" fill="white"/>
</clipPath>
</defs>
</svg>
