<svg width="150" height="150" viewBox="0 0 150 150" fill="none" xmlns="http://www.w3.org/2000/svg">
<path d="M58.5585 95.6C59.0145 95.6 59.4305 95.66 59.8065 95.78C60.1905 95.9 60.5145 96.076 60.7785 96.308C61.0505 96.54 61.2625 96.824 61.4145 97.16C61.5665 97.496 61.6425 97.88 61.6425 98.312C61.6425 98.744 61.5665 99.128 61.4145 99.464C61.2625 99.8 61.0505 100.084 60.7785 100.316C60.5145 100.548 60.1905 100.724 59.8065 100.844C59.4305 100.964 59.0145 101.024 58.5585 101.024H57.5025V104H55.7025V95.6H58.5585ZM57.5025 99.428H58.5945C58.9545 99.428 59.2505 99.332 59.4825 99.14C59.7145 98.948 59.8305 98.676 59.8305 98.324C59.8305 97.972 59.7145 97.7 59.4825 97.508C59.2505 97.316 58.9545 97.22 58.5945 97.22H57.5025V99.428ZM63.6286 106.688C63.3966 106.688 63.1966 106.664 63.0286 106.616C62.8686 106.576 62.7366 106.528 62.6326 106.472V105.008C62.8326 105.104 63.0566 105.152 63.3046 105.152C63.5606 105.152 63.7766 105.092 63.9526 104.972C64.1366 104.86 64.2886 104.66 64.4086 104.372L64.5766 103.988L62.1766 98.072H64.0246L65.5006 102.044L67.0006 98.072H68.8006L66.1486 104.516C65.8366 105.284 65.4766 105.836 65.0686 106.172C64.6686 106.516 64.1886 106.688 63.6286 106.688ZM71.7779 96.332V98.072H73.2779V99.512H71.7779V101.684C71.7779 102.004 71.8459 102.232 71.9819 102.368C72.1259 102.504 72.3419 102.572 72.6299 102.572C72.7419 102.572 72.8539 102.56 72.9659 102.536C73.0779 102.504 73.1819 102.456 73.2779 102.392V103.904C73.1419 103.968 72.9739 104.024 72.7739 104.072C72.5739 104.12 72.3339 104.144 72.0539 104.144C71.4299 104.144 70.9379 103.964 70.5779 103.604C70.2179 103.236 70.0379 102.72 70.0379 102.056V99.512H69.1979V98.072H70.0379V96.332H71.7779ZM76.0962 104H74.3442V95.6H76.0962V98.828C76.2802 98.54 76.5162 98.316 76.8042 98.156C77.1002 97.996 77.4482 97.916 77.8482 97.916C78.5282 97.916 79.0602 98.132 79.4442 98.564C79.8362 98.996 80.0322 99.588 80.0322 100.34V104H78.2802V100.736C78.2802 100.352 78.1882 100.056 78.0042 99.848C77.8202 99.632 77.5602 99.524 77.2242 99.524C76.8802 99.524 76.6042 99.644 76.3962 99.884C76.1962 100.124 76.0962 100.448 76.0962 100.856V104ZM81.1563 101.036C81.1563 100.596 81.2363 100.188 81.3963 99.812C81.5643 99.428 81.7923 99.096 82.0803 98.816C82.3683 98.536 82.7083 98.316 83.1003 98.156C83.4923 97.996 83.9163 97.916 84.3723 97.916C84.8283 97.916 85.2523 97.996 85.6443 98.156C86.0363 98.316 86.3763 98.536 86.6643 98.816C86.9523 99.096 87.1763 99.428 87.3363 99.812C87.5043 100.188 87.5883 100.596 87.5883 101.036C87.5883 101.476 87.5043 101.888 87.3363 102.272C87.1763 102.648 86.9523 102.976 86.6643 103.256C86.3763 103.536 86.0363 103.756 85.6443 103.916C85.2523 104.076 84.8283 104.156 84.3723 104.156C83.9163 104.156 83.4923 104.076 83.1003 103.916C82.7083 103.756 82.3683 103.536 82.0803 103.256C81.7923 102.976 81.5643 102.648 81.3963 102.272C81.2363 101.888 81.1563 101.476 81.1563 101.036ZM82.8843 101.036C82.8843 101.252 82.9243 101.452 83.0043 101.636C83.0843 101.82 83.1883 101.98 83.3163 102.116C83.4523 102.252 83.6083 102.36 83.7843 102.44C83.9683 102.52 84.1643 102.56 84.3723 102.56C84.5723 102.56 84.7643 102.52 84.9483 102.44C85.1323 102.36 85.2883 102.252 85.4163 102.116C85.5523 101.98 85.6603 101.82 85.7403 101.636C85.8203 101.452 85.8603 101.252 85.8603 101.036C85.8603 100.82 85.8203 100.62 85.7403 100.436C85.6603 100.252 85.5523 100.092 85.4163 99.956C85.2883 99.82 85.1323 99.712 84.9483 99.632C84.7643 99.552 84.5723 99.512 84.3723 99.512C84.1643 99.512 83.9683 99.552 83.7843 99.632C83.6083 99.712 83.4523 99.82 83.3163 99.956C83.1883 100.092 83.0843 100.252 83.0043 100.436C82.9243 100.62 82.8843 100.82 82.8843 101.036ZM90.5337 104H88.7817V98.072H90.5337V98.828C90.7177 98.54 90.9537 98.316 91.2417 98.156C91.5377 97.996 91.8857 97.916 92.2857 97.916C92.9657 97.916 93.4977 98.132 93.8817 98.564C94.2737 98.996 94.4697 99.588 94.4697 100.34V104H92.7177V100.748C92.7177 100.356 92.6257 100.056 92.4417 99.848C92.2577 99.632 91.9937 99.524 91.6497 99.524C91.3137 99.524 91.0417 99.644 90.8337 99.884C90.6337 100.116 90.5337 100.44 90.5337 100.856V104Z" fill="url(#paint0_linear_115_40)"/>
<path d="M137.97 51.3988C141.98 49.8963 146.49 51.9225 147.571 56.0652C151.646 71.6813 150.59 88.273 144.438 103.343C137.307 120.816 123.849 134.958 106.752 142.948C89.6531 150.938 70.1717 152.188 52.1929 146.448C34.2141 140.709 19.0598 128.403 9.75326 111.985C0.446735 95.5664 -2.3279 76.2429 1.98289 57.8691C6.29368 39.4954 17.373 23.4223 33.0105 12.8563C48.6481 2.29022 67.6944 -1.99197 86.3494 0.863939C102.439 3.32703 117.217 10.9434 128.523 22.461C131.521 25.5164 130.944 30.4271 127.595 33.0951C124.246 35.763 119.401 35.1673 116.32 32.1938C107.509 23.6881 96.2333 18.0621 84.0031 16.1899C69.2047 13.9244 54.0958 17.3213 41.6909 25.703C29.2861 34.0848 20.4971 46.8352 17.0774 61.4105C13.6578 75.9855 15.8589 91.3149 23.2415 104.339C30.6241 117.363 42.6457 127.125 56.9077 131.678C71.1699 136.231 86.6244 135.239 100.188 128.901C113.751 122.563 124.426 111.345 130.084 97.4841C134.76 86.0289 135.724 73.4647 132.952 61.5355C131.983 57.3652 133.961 52.9015 137.97 51.3988Z" fill="url(#paint1_linear_115_40)"/>
<path d="M69.2695 64.2188H80.6598C83.8305 64.2188 86.3281 61.536 86.3281 58.352V47.4934C86.3281 44.4028 83.7375 42.0809 80.6426 41.5653C78.684 41.2391 76.6602 41.0907 74.7102 41.1C72.7609 41.109 70.9555 41.275 69.3176 41.5653C64.4914 42.4172 63.6719 44.2024 63.6719 47.4934V51.7188H75V53.2813H59.2875C55.9734 53.2813 53.0711 55.2766 52.1637 59.0668C51.1164 63.4106 51.0699 66.0664 52.1637 70.602C52.9742 73.9778 54.9098 76.3282 58.2242 76.3282H62.1094V71.2313C62.1094 67.4668 65.4016 64.2188 69.2695 64.2188ZM68.5516 48.9414C67.3695 48.9414 66.4117 47.9731 66.4117 46.7754C66.4117 45.5727 67.3691 44.5953 68.5516 44.5953C69.7293 44.5953 70.6918 45.5727 70.6918 46.7754C70.6914 47.9731 69.7289 48.9414 68.5516 48.9414ZM97.766 59.0668C96.9465 55.7668 95.382 53.2813 92.0633 53.2813H87.8906V58.352C87.8906 62.2778 84.4555 65.3907 80.6598 65.3907H69.2695C66.1492 65.3907 63.6719 68.2524 63.6719 71.3774V82.2367C63.6719 85.3266 66.3066 87.1446 69.3211 88.0313C72.9312 89.0926 76.35 89.2844 80.6691 88.0313C83.5398 87.1996 86.3281 85.527 86.3281 82.2367V77.8907H75V76.3282H92.0633C95.3773 76.3282 96.6129 74.0719 97.766 70.6016C98.9562 67.0293 98.9051 63.6489 97.766 59.0668ZM81.3773 80.7879C82.5598 80.7879 83.5176 81.7563 83.5176 82.9547C83.5176 84.1563 82.5602 85.134 81.3773 85.134C80.1996 85.134 79.2375 84.1567 79.2375 82.9547C79.2375 81.7563 80.1996 80.7879 81.3773 80.7879Z" fill="url(#paint2_linear_115_40)"/>
<defs>
<linearGradient id="paint0_linear_115_40" x1="41.3428" y1="98.9426" x2="112.088" y2="99.7221" gradientUnits="userSpaceOnUse">
<stop stop-color="#AA367C"/>
<stop offset="1" stop-color="#4A2FBD"/>
</linearGradient>
<linearGradient id="paint1_linear_115_40" x1="-9.14307" y1="67.0697" x2="167.738" y2="67.7193" gradientUnits="userSpaceOnUse">
<stop stop-color="#AA367C"/>
<stop offset="1" stop-color="#4A2FBD"/>
</linearGradient>
<linearGradient id="paint2_linear_115_40" x1="48.4789" y1="62.4729" x2="104.231" y2="62.6754" gradientUnits="userSpaceOnUse">
<stop stop-color="#AA367C"/>
<stop offset="1" stop-color="#4A2FBD"/>
</linearGradient>
</defs>
</svg>
