<svg width="196" height="148" viewBox="0 0 196 148" fill="none" xmlns="http://www.w3.org/2000/svg">
<path d="M11.398 21.65C15.248 21.65 18.398 24.8 18.398 28.65C18.398 50 18.398 71.175 18.398 92.525C18.398 107.925 30.823 120.175 46.2231 120.175C61.6231 120.175 73.873 107.925 73.873 92.525C73.873 71.175 73.873 31.975 73.873 28.65C73.873 24.8 77.0231 21.65 80.873 21.65C84.7231 21.65 87.698 24.8 87.698 28.65C87.698 31.975 87.698 71.175 87.698 92.525C87.698 115.275 68.9731 134 46.2231 134C23.298 134 4.74805 115.275 4.74805 92.525C4.74805 71.175 4.74805 50 4.74805 28.65C4.57305 24.8 7.72305 21.65 11.398 21.65Z" fill="white"/>
<path d="M97.875 99.1C99.375 99.1 100.575 100.3 100.575 101.8V101.95C102.975 100.15 105.9 99.1 109.05 99.1C110.55 99.1 111.75 100.3 111.75 101.8C111.75 103.3 110.55 104.5 109.05 104.5C104.325 104.5 100.575 108.25 100.575 112.975V124.075C100.575 125.575 99.375 127 97.875 127C96.375 127 95.175 125.575 95.175 124.075V101.8C95.175 100.3 96.375 99.1 97.875 99.1ZM115.908 124.3V102.025C115.908 100.525 117.108 99.325 118.608 99.325C120.108 99.325 121.308 100.525 121.308 102.025V124.3C121.308 125.8 120.108 127 118.608 127C117.108 127 115.908 125.8 115.908 124.3ZM115.158 94.075C115.158 92.2 116.733 90.625 118.608 90.625C120.558 90.625 122.058 92.2 122.058 94.075C122.058 96.025 120.558 97.6 118.608 97.6C116.733 97.6 115.158 96.025 115.158 94.075ZM139.21 99.325C146.86 99.325 152.785 105.625 152.785 113.125C152.785 114.625 151.51 115.9 150.01 115.9H131.635C132.685 119.2 135.46 121.6 139.21 121.6C142.21 121.6 143.785 120.775 144.685 120.1C145.66 119.5 144.91 120.775 145.735 119.125C146.26 118.075 147.16 117.625 148.06 117.625C149.485 117.625 150.91 118.75 150.91 120.325C150.91 120.7 150.835 121.15 150.61 121.6C149.785 123.175 149.71 123.25 147.91 124.525C146.11 125.875 143.26 127 139.21 127C131.635 127 125.71 120.7 125.71 113.125C125.71 105.625 131.635 99.325 139.21 99.325ZM139.21 104.725C135.46 104.725 132.685 107.125 131.635 110.425H146.86C145.81 107.125 142.96 104.725 139.21 104.725ZM156.845 124.3V91.975C156.845 90.475 158.045 89.275 159.545 89.275C161.045 89.275 162.245 90.475 162.245 91.975V124.3C162.245 125.8 161.045 127 159.545 127C158.045 127 156.845 125.8 156.845 124.3Z" fill="white"/>
<path d="M95.175 89.3V56.975C95.175 55.475 96.375 54.275 97.875 54.275C99.375 54.275 100.575 55.475 100.575 56.975V89.3C100.575 90.8 99.375 92 97.875 92C96.375 92 95.175 90.8 95.175 89.3ZM105.288 89.3V67.025C105.288 65.525 106.488 64.325 107.988 64.325C109.488 64.325 110.688 65.525 110.688 67.025V89.3C110.688 90.8 109.488 92 107.988 92C106.488 92 105.288 90.8 105.288 89.3ZM104.538 59.075C104.538 57.2 106.113 55.625 107.988 55.625C109.938 55.625 111.438 57.2 111.438 59.075C111.438 61.025 109.938 62.6 107.988 62.6C106.113 62.6 104.538 61.025 104.538 59.075ZM117.415 80.975C118.765 80.975 119.89 81.95 120.115 83.225C120.115 83.3 120.265 83.9 120.715 84.575C121.015 85.025 121.39 85.4 121.915 85.775C122.59 86.225 123.565 86.6 125.14 86.6C126.865 86.6 128.215 86.075 128.89 85.25C129.19 84.8 129.415 84.35 129.415 83.75C129.415 83 129.265 82.475 129.115 82.175C128.89 81.8 128.59 81.5 128.14 81.2C127.39 80.825 126.19 80.45 124.765 80.45C121.69 80.45 119.215 78.95 117.64 76.925C116.665 75.65 116.14 74 116.14 72.275C116.14 70.4 116.74 68.75 117.79 67.4C119.365 65.525 121.84 64.325 124.99 64.325C128.14 64.325 130.315 65.45 131.59 66.65C132.64 67.55 133.09 68.45 133.165 68.675C133.39 69.125 133.465 69.5 133.465 69.875C133.465 71.3 132.265 72.5 130.765 72.5C129.715 72.5 128.815 71.9 128.365 71.075C128.215 70.925 128.065 70.7 127.69 70.4C127.24 70.1 126.415 69.725 124.99 69.725C123.715 69.725 122.59 70.175 121.99 70.85C121.765 71.15 121.54 71.6 121.54 72.275C121.54 72.875 121.765 73.325 121.99 73.625C122.59 74.45 123.79 75.05 125.215 75.05C127.015 75.05 128.89 75.5 130.69 76.475C131.965 77.15 133.165 78.275 133.915 79.7C134.515 80.9 134.815 82.25 134.815 83.75C134.815 86.45 133.465 88.85 131.29 90.275C129.565 91.475 127.465 92 125.14 92C122.59 92 120.49 91.325 118.915 90.275C117.64 89.525 116.815 88.475 116.14 87.575C115.09 85.85 114.79 84.425 114.79 84.2C114.79 84.05 114.79 83.825 114.79 83.675C114.79 82.175 116.065 80.975 117.415 80.975ZM151.954 64.325C159.604 64.325 165.529 70.625 165.529 78.125C165.529 79.625 164.254 80.9 162.754 80.9H144.379C145.429 84.2 148.204 86.6 151.954 86.6C154.954 86.6 156.529 85.775 157.429 85.1C158.404 84.5 157.654 85.775 158.479 84.125C159.004 83.075 159.904 82.625 160.804 82.625C162.229 82.625 163.654 83.75 163.654 85.325C163.654 85.7 163.579 86.15 163.354 86.6C162.529 88.175 162.454 88.25 160.654 89.525C158.854 90.875 156.004 92 151.954 92C144.379 92 138.454 85.7 138.454 78.125C138.454 70.625 144.379 64.325 151.954 64.325ZM151.954 69.725C148.204 69.725 145.429 72.125 144.379 75.425H159.604C158.554 72.125 155.704 69.725 151.954 69.725ZM171.614 80.975C172.964 80.975 174.089 81.95 174.314 83.225C174.314 83.3 174.464 83.9 174.914 84.575C175.214 85.025 175.589 85.4 176.114 85.775C176.789 86.225 177.764 86.6 179.339 86.6C181.064 86.6 182.414 86.075 183.089 85.25C183.389 84.8 183.614 84.35 183.614 83.75C183.614 83 183.464 82.475 183.314 82.175C183.089 81.8 182.789 81.5 182.339 81.2C181.589 80.825 180.389 80.45 178.964 80.45C175.889 80.45 173.414 78.95 171.839 76.925C170.864 75.65 170.339 74 170.339 72.275C170.339 70.4 170.939 68.75 171.989 67.4C173.564 65.525 176.039 64.325 179.189 64.325C182.339 64.325 184.514 65.45 185.789 66.65C186.839 67.55 187.289 68.45 187.364 68.675C187.589 69.125 187.664 69.5 187.664 69.875C187.664 71.3 186.464 72.5 184.964 72.5C183.914 72.5 183.014 71.9 182.564 71.075C182.414 70.925 182.264 70.7 181.889 70.4C181.439 70.1 180.614 69.725 179.189 69.725C177.914 69.725 176.789 70.175 176.189 70.85C175.964 71.15 175.739 71.6 175.739 72.275C175.739 72.875 175.964 73.325 176.189 73.625C176.789 74.45 177.989 75.05 179.414 75.05C181.214 75.05 183.089 75.5 184.889 76.475C186.164 77.15 187.364 78.275 188.114 79.7C188.714 80.9 189.014 82.25 189.014 83.75C189.014 86.45 187.664 88.85 185.489 90.275C183.764 91.475 181.664 92 179.339 92C176.789 92 174.689 91.325 173.114 90.275C171.839 89.525 171.014 88.475 170.339 87.575C169.289 85.85 168.989 84.425 168.989 84.2C168.989 84.05 168.989 83.825 168.989 83.675C168.989 82.175 170.264 80.975 171.614 80.975Z" fill="white"/>
<circle cx="25.5" cy="7.5" r="7.5" fill="white"/>
<circle cx="67.5" cy="7.5" r="7.5" fill="white"/>
</svg>
