<svg width="150" height="150" viewBox="0 0 150 150" fill="none" xmlns="http://www.w3.org/2000/svg">
<g clip-path="url(#clip0_2_50)">
<path d="M137.97 51.3985C141.979 49.8959 146.49 51.9221 147.571 56.0649C151.646 71.681 150.59 88.2727 144.438 103.343C137.307 120.816 123.849 134.958 106.751 142.948C89.6529 150.937 70.1715 152.187 52.1926 146.448C34.2138 140.709 19.0596 128.403 9.75301 111.984C0.446491 95.566 -2.32815 76.2425 1.98265 57.8687C6.29344 39.495 17.3727 23.4219 33.0103 12.8559C48.6479 2.28986 67.6941 -1.99234 86.3492 0.863573C102.439 3.32666 117.217 10.943 128.523 22.4606C131.521 25.516 130.943 30.4267 127.595 33.0947C124.246 35.7627 119.401 35.1669 116.32 32.1934C107.509 23.6877 96.233 18.0618 84.0029 16.1895C69.2044 13.924 54.0956 17.3209 41.6907 25.7027C29.2858 34.0844 20.4968 46.8348 17.0772 61.4102C13.6576 75.9852 15.8587 91.3146 23.2412 104.339C30.6239 117.363 42.6454 127.125 56.9075 131.678C71.1696 136.231 86.6242 135.239 100.187 128.901C113.751 122.563 124.426 111.345 130.084 97.4837C134.759 86.0285 135.723 73.4644 132.952 61.5352C131.983 57.3649 133.961 52.9011 137.97 51.3985Z" fill="url(#paint0_linear_2_50)"/>
<path d="M48.1578 104H51.2178C53.0058 104 54.1458 103.076 54.1458 101.576C54.1458 100.568 53.6178 99.848 52.6458 99.524C53.2818 99.2 53.6418 98.612 53.6418 97.844C53.6418 96.452 52.5498 95.6 51.0018 95.6H48.1578V104ZM49.5738 102.764V100.256H51.1458C52.0698 100.256 52.6938 100.724 52.6938 101.504C52.6938 102.32 52.0818 102.764 51.1578 102.764H49.5738ZM49.5738 99.068V96.824H50.9058C51.6858 96.824 52.2378 97.22 52.2378 97.94C52.2378 98.66 51.6858 99.068 50.9058 99.068H49.5738ZM58.3913 97.976C56.5913 97.976 55.2593 99.332 55.2593 101.06C55.2593 102.788 56.5913 104.144 58.3913 104.144C60.1913 104.144 61.5233 102.788 61.5233 101.06C61.5233 99.332 60.1913 97.976 58.3913 97.976ZM58.3913 99.248C59.3753 99.248 60.1433 100.052 60.1433 101.06C60.1433 102.068 59.3753 102.872 58.3913 102.872C57.4073 102.872 56.6393 102.068 56.6393 101.06C56.6393 100.052 57.4073 99.248 58.3913 99.248ZM65.6569 97.976C63.8569 97.976 62.5249 99.332 62.5249 101.06C62.5249 102.788 63.8569 104.144 65.6569 104.144C67.4569 104.144 68.7889 102.788 68.7889 101.06C68.7889 99.332 67.4569 97.976 65.6569 97.976ZM65.6569 99.248C66.6409 99.248 67.4089 100.052 67.4089 101.06C67.4089 102.068 66.6409 102.872 65.6569 102.872C64.6729 102.872 63.9049 102.068 63.9049 101.06C63.9049 100.052 64.6729 99.248 65.6569 99.248ZM70.2625 96.38V98.12H69.3865V99.296H70.2625V102.188C70.2625 103.424 70.9585 104.144 72.1465 104.144C72.6265 104.144 72.9745 104.06 73.2025 103.928V102.692C73.0225 102.824 72.7825 102.872 72.5545 102.872C71.9305 102.872 71.6425 102.596 71.6425 101.936V99.296H73.2025V98.12H71.6425V96.38H70.2625ZM74.0762 102.644C74.4122 103.556 75.2522 104.144 76.3562 104.144C77.5082 104.144 78.5162 103.448 78.5162 102.248C78.5162 101.468 78.0722 100.904 76.9682 100.532L76.2722 100.304C75.8282 100.16 75.6122 99.944 75.6122 99.668C75.6122 99.332 75.9242 99.128 76.3202 99.128C76.7642 99.128 77.1122 99.44 77.3402 99.908L78.4562 99.308C78.0842 98.492 77.2802 97.976 76.3202 97.976C75.2162 97.976 74.2922 98.672 74.2922 99.776C74.2922 100.592 74.7962 101.156 75.7922 101.48L76.5002 101.708C76.9682 101.852 77.1722 102.02 77.1722 102.344C77.1722 102.764 76.8122 102.956 76.3802 102.956C75.8522 102.956 75.4082 102.596 75.2042 102.056L74.0762 102.644ZM80.0008 96.38V98.12H79.1248V99.296H80.0008V102.188C80.0008 103.424 80.6968 104.144 81.8848 104.144C82.3648 104.144 82.7128 104.06 82.9408 103.928V102.692C82.7608 102.824 82.5208 102.872 82.2928 102.872C81.6688 102.872 81.3808 102.596 81.3808 101.936V99.296H82.9408V98.12H81.3808V96.38H80.0008ZM87.5507 98.036C87.5267 98.012 87.4427 98 87.2867 98C86.5187 98 85.8227 98.444 85.5347 99.128V98.12H84.1667V104H85.5467V101.408C85.5467 100.196 86.1707 99.404 87.1907 99.404C87.3707 99.404 87.4907 99.416 87.5507 99.452V98.036ZM93.0021 98.12V98.924C92.5701 98.312 91.8261 97.976 91.0101 97.976C89.3901 97.976 88.1421 99.332 88.1421 101.06C88.1421 102.788 89.3901 104.144 91.0101 104.144C91.8261 104.144 92.5701 103.76 93.0021 103.148V104H94.3701V98.12H93.0021ZM89.5341 101.06C89.5341 100.052 90.3021 99.236 91.2981 99.236C92.2941 99.236 93.0621 100.052 93.0621 101.06C93.0621 102.068 92.2941 102.884 91.2981 102.884C90.3021 102.884 89.5341 102.068 89.5341 101.06ZM96.1081 98.12V106.496H97.4881V103.196C97.9201 103.808 98.6641 104.144 99.4801 104.144C101.1 104.144 102.348 102.788 102.348 101.06C102.348 99.296 101.1 97.976 99.4801 97.976C98.6641 97.976 97.9201 98.348 97.4881 98.96V98.12H96.1081ZM100.956 101.06C100.956 102.068 100.188 102.884 99.1921 102.884C98.1961 102.884 97.4281 102.068 97.4281 101.06C97.4281 100.052 98.1961 99.236 99.1921 99.236C100.188 99.236 100.956 100.052 100.956 101.06Z" fill="url(#paint1_linear_2_50)"/>
<g clip-path="url(#clip1_2_50)">
<path d="M65.8187 77.5H76.6781C82.3156 77.5 85.7031 74.6625 85.7031 70.0125C85.7031 66.5687 83.325 64.025 79.7531 63.6562V63.3437C82.3531 62.9062 84.3844 60.4375 84.3844 57.6687C84.3844 53.6062 81.4 51.075 76.4406 51.075H65.8187V77.5ZM69.9219 62.2656V54.5562H75.4844C78.525 54.5562 80.3031 55.9843 80.3031 58.4218C80.3031 60.9281 78.4156 62.2656 74.7906 62.2656H69.9219ZM69.9219 74.0218V65.5062H75.6156C79.4781 65.5062 81.5125 66.9531 81.5125 69.7187C81.5125 72.5187 79.5531 74.0218 75.8531 74.0218H69.9219V74.0218Z" fill="url(#paint2_linear_2_50)"/>
<path d="M50 52.5C50 49.1848 51.317 46.0054 53.6612 43.6612C56.0054 41.317 59.1848 40 62.5 40H87.5C90.8152 40 93.9946 41.317 96.3388 43.6612C98.683 46.0054 100 49.1848 100 52.5V77.5C100 80.8152 98.683 83.9946 96.3388 86.3388C93.9946 88.683 90.8152 90 87.5 90H62.5C59.1848 90 56.0054 88.683 53.6612 86.3388C51.317 83.9946 50 80.8152 50 77.5V52.5ZM62.5 43.125C60.0136 43.125 57.629 44.1127 55.8709 45.8709C54.1127 47.629 53.125 50.0136 53.125 52.5V77.5C53.125 79.9864 54.1127 82.371 55.8709 84.1291C57.629 85.8873 60.0136 86.875 62.5 86.875H87.5C89.9864 86.875 92.371 85.8873 94.1291 84.1291C95.8873 82.371 96.875 79.9864 96.875 77.5V52.5C96.875 50.0136 95.8873 47.629 94.1291 45.8709C92.371 44.1127 89.9864 43.125 87.5 43.125H62.5Z" fill="url(#paint3_linear_2_50)"/>
</g>
</g>
<defs>
<linearGradient id="paint0_linear_2_50" x1="-9.14331" y1="67.0694" x2="167.738" y2="67.719" gradientUnits="userSpaceOnUse">
<stop stop-color="#AA367C"/>
<stop offset="1" stop-color="#4A2FBD"/>
</linearGradient>
<linearGradient id="paint1_linear_2_50" x1="41.3428" y1="98.9426" x2="112.088" y2="99.7221" gradientUnits="userSpaceOnUse">
<stop stop-color="#AA367C"/>
<stop offset="1" stop-color="#4A2FBD"/>
</linearGradient>
<linearGradient id="paint2_linear_2_50" x1="64.6067" y1="62.8904" x2="88.0546" y2="62.9552" gradientUnits="userSpaceOnUse">
<stop stop-color="#AA367C"/>
<stop offset="1" stop-color="#4A2FBD"/>
</linearGradient>
<linearGradient id="paint3_linear_2_50" x1="46.9523" y1="62.3565" x2="105.913" y2="62.573" gradientUnits="userSpaceOnUse">
<stop stop-color="#AA367C"/>
<stop offset="1" stop-color="#4A2FBD"/>
</linearGradient>
<clipPath id="clip0_2_50">
<rect width="150" height="150" fill="white"/>
</clipPath>
<clipPath id="clip1_2_50">
<rect width="50" height="50" fill="white" transform="translate(50 40)"/>
</clipPath>
</defs>
</svg>
