<svg width="150" height="150" viewBox="0 0 150 150" fill="none" xmlns="http://www.w3.org/2000/svg">
<g clip-path="url(#clip0_2_29)">
<path d="M137.97 51.3985C141.979 49.896 146.49 51.9222 147.571 56.0649C151.646 71.681 150.59 88.2727 144.438 103.343C137.307 120.816 123.849 134.958 106.751 142.948C89.6529 150.937 70.1715 152.187 52.1926 146.448C34.2138 140.709 19.0596 128.403 9.75301 111.984C0.446491 95.5661 -2.32815 76.2426 1.98265 57.8688C6.29344 39.4951 17.3727 23.422 33.0103 12.856C48.6479 2.28992 67.6941 -1.99228 86.3492 0.863634C102.439 3.32672 117.217 10.9431 128.523 22.4607C131.521 25.5161 130.943 30.4268 127.595 33.0948C124.246 35.7627 119.401 35.167 116.32 32.1935C107.509 23.6878 96.233 18.0618 84.0029 16.1896C69.2044 13.924 54.0956 17.321 41.6907 25.7027C29.2858 34.0845 20.4968 46.8349 17.0772 61.4102C13.6576 75.9852 15.8587 91.3146 23.2412 104.339C30.6239 117.363 42.6454 127.125 56.9075 131.678C71.1696 136.231 86.6242 135.239 100.187 128.901C113.751 122.563 124.426 111.345 130.084 97.4838C134.759 86.0286 135.723 73.4644 132.952 61.5352C131.983 57.3649 133.961 52.9012 137.97 51.3985Z" fill="url(#paint0_linear_2_29)"/>
<path d="M59.9572 100.352H62.9932V99.044H59.9572V96.908H63.2092V95.6H58.5172V104H59.9572V100.352ZM65.9533 104V98.12H64.5613V104H65.9533ZM66.1093 96.404C66.1093 95.936 65.7373 95.54 65.2453 95.54C64.7773 95.54 64.3933 95.924 64.3933 96.404C64.3933 96.872 64.7773 97.256 65.2453 97.256C65.7373 97.256 66.1093 96.872 66.1093 96.404ZM72.0465 103.652C72.0465 104.804 71.3985 105.488 70.3425 105.488C69.5865 105.488 68.9745 105.128 68.6025 104.456L67.4985 105.152C68.0145 106.124 69.0345 106.7 70.3425 106.7C72.2625 106.7 73.4145 105.464 73.4145 103.64V98.12H72.0465V98.912C71.6505 98.336 70.9305 97.976 70.1145 97.976C68.5185 97.976 67.2945 99.284 67.2945 100.976C67.2945 102.656 68.5185 103.94 70.1145 103.94C70.9305 103.94 71.6505 103.556 72.0465 102.992V103.652ZM72.1065 100.976C72.1065 101.96 71.3625 102.74 70.4025 102.74C69.4425 102.74 68.6985 101.96 68.6985 100.976C68.6985 100.004 69.4425 99.224 70.4025 99.224C71.3625 99.224 72.1065 100.004 72.1065 100.976ZM76.5353 100.88C76.5353 99.872 77.0273 99.248 77.7953 99.248C78.5273 99.248 78.9233 99.788 78.9233 100.7V104H80.3153V100.82C80.3273 99.86 80.8193 99.248 81.5753 99.248C82.3073 99.248 82.7033 99.788 82.7033 100.652V104H84.0953V100.388C84.0953 98.912 83.3153 97.976 81.9593 97.976C80.9873 97.976 80.3153 98.504 80.0033 99.068C79.6793 98.384 79.0673 97.976 78.2153 97.976C77.4113 97.976 76.8593 98.336 76.5353 98.9V98.12H75.1433V104H76.5353V100.88ZM90.2248 98.12V98.924C89.7928 98.312 89.0488 97.976 88.2328 97.976C86.6128 97.976 85.3648 99.332 85.3648 101.06C85.3648 102.788 86.6128 104.144 88.2328 104.144C89.0488 104.144 89.7928 103.76 90.2248 103.148V104H91.5928V98.12H90.2248ZM86.7568 101.06C86.7568 100.052 87.5248 99.236 88.5208 99.236C89.5168 99.236 90.2848 100.052 90.2848 101.06C90.2848 102.068 89.5168 102.884 88.5208 102.884C87.5248 102.884 86.7568 102.068 86.7568 101.06Z" fill="url(#paint1_linear_2_29)"/>
<path fill-rule="evenodd" clip-rule="evenodd" d="M67.5312 40C62.4333 40 58.3333 44.2771 58.3333 49.5167C58.3333 52.7021 59.85 55.5313 62.1812 57.2583C60.9797 58.1585 60.0058 59.3277 59.3376 60.6721C58.6694 62.0165 58.3254 63.4987 58.3333 65C58.3333 68.1875 59.85 71.0146 62.1812 72.7417C60.9797 73.6418 60.0058 74.811 59.3376 76.1554C58.6694 77.4998 58.3254 78.982 58.3333 80.4833C58.3333 85.7229 62.4333 90 67.5312 90C72.6271 90 76.7292 85.7229 76.7292 80.4833V72.4375C78.3403 73.7808 80.3711 74.5172 82.4687 74.5187C87.5667 74.5167 91.6667 70.2396 91.6667 65C91.675 63.4986 91.3313 62.0162 90.663 60.6717C89.9948 59.3272 89.0206 58.1582 87.8187 57.2583C89.0202 56.3582 89.9941 55.189 90.6624 53.8446C91.3306 52.5002 91.6745 51.018 91.6667 49.5167C91.6667 44.2771 87.5667 40 82.4687 40H67.5312V40ZM61.7896 49.5167C61.7896 46.2021 64.3771 43.5479 67.5312 43.5479H73.2708V55.4854H67.5312C64.3771 55.4854 61.7896 52.8292 61.7896 49.5167V49.5167ZM82.4687 55.4833H76.7292V43.5458H82.4687C85.625 43.5458 88.2104 46.2021 88.2104 49.5167C88.2104 52.8292 85.625 55.4833 82.4687 55.4833ZM61.7917 65C61.7917 61.6875 64.3792 59.0312 67.5333 59.0312H73.2729V70.9687H67.5312C64.375 70.9687 61.7896 68.3125 61.7896 65H61.7917ZM76.7292 65C76.7292 61.6875 79.3167 59.0312 82.4708 59.0312C85.6271 59.0312 88.2125 61.6854 88.2125 65C88.2125 68.3125 85.6271 70.9687 82.4708 70.9687C79.3167 70.9687 76.7312 68.3146 76.7312 65H76.7292ZM61.7917 80.4833C61.7917 77.1708 64.3792 74.5167 67.5333 74.5167H73.2729V80.4833C73.2729 83.7979 70.6896 86.4521 67.5333 86.4521C64.3792 86.4521 61.7917 83.7979 61.7917 80.4833Z" fill="url(#paint2_linear_2_29)"/>
</g>
<defs>
<linearGradient id="paint0_linear_2_29" x1="-9.14331" y1="67.0694" x2="167.738" y2="67.719" gradientUnits="userSpaceOnUse">
<stop stop-color="#AA367C"/>
<stop offset="1" stop-color="#4A2FBD"/>
</linearGradient>
<linearGradient id="paint1_linear_2_29" x1="46.9523" y1="98.9426" x2="105.909" y2="99.4839" gradientUnits="userSpaceOnUse">
<stop stop-color="#AA367C"/>
<stop offset="1" stop-color="#4A2FBD"/>
</linearGradient>
<linearGradient id="paint2_linear_2_29" x1="56.3014" y1="62.3565" x2="95.6089" y2="62.4527" gradientUnits="userSpaceOnUse">
<stop stop-color="#AA367C"/>
<stop offset="1" stop-color="#4A2FBD"/>
</linearGradient>
<clipPath id="clip0_2_29">
<rect width="150" height="150" fill="white"/>
</clipPath>
</defs>
</svg>
