<svg width="150" height="150" viewBox="0 0 150 150" fill="none" xmlns="http://www.w3.org/2000/svg">
<g clip-path="url(#clip0_2_3)">
<path d="M137.97 51.3985C141.979 49.8959 146.49 51.9221 147.571 56.0649C151.646 71.681 150.59 88.2727 144.438 103.343C137.307 120.816 123.849 134.958 106.751 142.948C89.6529 150.937 70.1715 152.187 52.1927 146.448C34.2138 140.709 19.0596 128.403 9.75303 111.984C0.446506 95.566 -2.32813 76.2425 1.98266 57.8687C6.29346 39.495 17.3727 23.4219 33.0103 12.8559C48.6479 2.28986 67.6941 -1.99234 86.3492 0.863573C102.439 3.32666 117.217 10.943 128.523 22.4606C131.521 25.516 130.943 30.4267 127.595 33.0947C124.246 35.7627 119.401 35.1669 116.32 32.1934C107.509 23.6877 96.233 18.0618 84.0029 16.1895C69.2044 13.924 54.0956 17.3209 41.6907 25.7027C29.2858 34.0844 20.4969 46.8348 17.0772 61.4102C13.6576 75.9852 15.8587 91.3146 23.2413 104.339C30.6239 117.363 42.6455 127.125 56.9075 131.678C71.1696 136.231 86.6242 135.239 100.187 128.901C113.751 122.563 124.426 111.345 130.084 97.4837C134.759 86.0285 135.723 73.4644 132.952 61.5352C131.983 57.3649 133.961 52.9011 137.97 51.3985Z" fill="url(#paint0_linear_2_3)"/>
<path d="M59.1193 100.352H62.1553V99.044H59.1193V96.908H62.3713V95.6H57.6793V104H59.1193V100.352ZM63.7234 95.6V104H65.1154V95.6H63.7234ZM70.8006 101.216C70.8006 102.224 70.2606 102.86 69.4326 102.86C68.6166 102.86 68.1606 102.308 68.1606 101.396V98.12H66.7686V101.66C66.7686 103.196 67.6086 104.144 69.0126 104.144C69.8286 104.144 70.4286 103.784 70.8006 103.22V104H72.1926V98.12H70.8006V101.216ZM74.1707 96.38V98.12H73.2947V99.296H74.1707V102.188C74.1707 103.424 74.8667 104.144 76.0547 104.144C76.5347 104.144 76.8827 104.06 77.1107 103.928V102.692C76.9307 102.824 76.6907 102.872 76.4627 102.872C75.8387 102.872 75.5507 102.596 75.5507 101.936V99.296H77.1107V98.12H75.5507V96.38H74.1707ZM78.7058 96.38V98.12H77.8298V99.296H78.7058V102.188C78.7058 103.424 79.4018 104.144 80.5898 104.144C81.0698 104.144 81.4178 104.06 81.6458 103.928V102.692C81.4658 102.824 81.2258 102.872 80.9978 102.872C80.3738 102.872 80.0858 102.596 80.0858 101.936V99.296H81.6458V98.12H80.0858V96.38H78.7058ZM87.0012 102.08C86.6652 102.596 86.2692 102.968 85.5012 102.968C84.6252 102.968 83.8692 102.332 83.8092 101.48H88.3332C88.3452 101.312 88.3452 101.168 88.3452 101.06C88.3452 99.296 87.1332 97.976 85.4172 97.976C83.7252 97.976 82.4292 99.296 82.4292 101.06C82.4292 102.872 83.7012 104.144 85.4892 104.144C86.7372 104.144 87.6492 103.544 88.1412 102.62L87.0012 102.08ZM83.8212 100.472C83.9172 99.8 84.5652 99.116 85.3932 99.116C86.2452 99.116 86.8692 99.692 86.9652 100.472H83.8212ZM93.0175 98.036C92.9935 98.012 92.9095 98 92.7535 98C91.9855 98 91.2895 98.444 91.0015 99.128V98.12H89.6335V104H91.0135V101.408C91.0135 100.196 91.6375 99.404 92.6575 99.404C92.8375 99.404 92.9575 99.416 93.0175 99.452V98.036Z" fill="url(#paint1_linear_2_3)"/>
<path d="M64.5833 69.1667L58.3333 62.9167L75 46.25H87.5L64.5833 69.1667ZM79.1667 83.75L68.75 73.3333L79.1667 62.9167H89.5833L79.1667 73.3333L89.5833 83.75H79.1667Z" stroke="url(#paint2_linear_2_3)" stroke-width="2" stroke-linecap="round" stroke-linejoin="round"/>
</g>
<defs>
<linearGradient id="paint0_linear_2_3" x1="-9.14329" y1="67.0694" x2="167.738" y2="67.719" gradientUnits="userSpaceOnUse">
<stop stop-color="#AA367C"/>
<stop offset="1" stop-color="#4A2FBD"/>
</linearGradient>
<linearGradient id="paint1_linear_2_3" x1="46.9523" y1="98.9426" x2="105.909" y2="99.4839" gradientUnits="userSpaceOnUse">
<stop stop-color="#AA367C"/>
<stop offset="1" stop-color="#4A2FBD"/>
</linearGradient>
<linearGradient id="paint2_linear_2_3" x1="56.4285" y1="63.0174" x2="93.2789" y2="63.1302" gradientUnits="userSpaceOnUse">
<stop stop-color="#AA367C"/>
<stop offset="1" stop-color="#4A2FBD"/>
</linearGradient>
<clipPath id="clip0_2_3">
<rect width="150" height="150" fill="white"/>
</clipPath>
</defs>
</svg>
