<svg width="150" height="150" viewBox="0 0 150 150" fill="none" xmlns="http://www.w3.org/2000/svg">
<g clip-path="url(#clip0_2_73)">
<path d="M137.97 51.3985C141.979 49.8959 146.49 51.9221 147.571 56.0649C151.646 71.681 150.59 88.2727 144.438 103.343C137.307 120.816 123.849 134.958 106.751 142.948C89.6529 150.937 70.1715 152.187 52.1926 146.448C34.2138 140.709 19.0596 128.403 9.75301 111.984C0.446491 95.566 -2.32815 76.2425 1.98265 57.8687C6.29344 39.495 17.3727 23.4219 33.0103 12.8559C48.6479 2.28986 67.6941 -1.99234 86.3492 0.863573C102.439 3.32666 117.217 10.943 128.523 22.4606C131.521 25.516 130.943 30.4267 127.595 33.0947C124.246 35.7627 119.401 35.1669 116.32 32.1934C107.509 23.6877 96.233 18.0618 84.0029 16.1895C69.2044 13.924 54.0956 17.3209 41.6907 25.7027C29.2858 34.0844 20.4968 46.8348 17.0772 61.4102C13.6576 75.9852 15.8587 91.3146 23.2412 104.339C30.6239 117.363 42.6454 127.125 56.9075 131.678C71.1696 136.231 86.6242 135.239 100.187 128.901C113.751 122.563 124.426 111.345 130.084 97.4837C134.759 86.0285 135.723 73.4644 132.952 61.5352C131.983 57.3649 133.961 52.9011 137.97 51.3985Z" fill="url(#paint0_linear_2_73)"/>
<path d="M54.0384 95.6L51.0864 101.972L48.1344 95.6H46.3824V104H47.7864V98.036L50.5824 104H51.5304L54.3384 98.024V104H55.7424V95.6H54.0384ZM60.3425 97.976C58.5425 97.976 57.2105 99.332 57.2105 101.06C57.2105 102.788 58.5425 104.144 60.3425 104.144C62.1425 104.144 63.4745 102.788 63.4745 101.06C63.4745 99.332 62.1425 97.976 60.3425 97.976ZM60.3425 99.248C61.3265 99.248 62.0945 100.052 62.0945 101.06C62.0945 102.068 61.3265 102.872 60.3425 102.872C59.3585 102.872 58.5905 102.068 58.5905 101.06C58.5905 100.052 59.3585 99.248 60.3425 99.248ZM66.2052 100.904C66.2052 99.896 66.7572 99.26 67.5852 99.26C68.4372 99.26 68.8932 99.812 68.8932 100.724V104H70.2852V100.46C70.2852 98.924 69.4452 97.976 68.0052 97.976C67.1772 97.976 66.5772 98.336 66.2052 98.9V98.12H64.8132V104H66.2052V100.904ZM76.3062 103.652C76.3062 104.804 75.6582 105.488 74.6022 105.488C73.8462 105.488 73.2342 105.128 72.8622 104.456L71.7582 105.152C72.2742 106.124 73.2942 106.7 74.6022 106.7C76.5222 106.7 77.6742 105.464 77.6742 103.64V98.12H76.3062V98.912C75.9102 98.336 75.1902 97.976 74.3742 97.976C72.7782 97.976 71.5542 99.284 71.5542 100.976C71.5542 102.656 72.7782 103.94 74.3742 103.94C75.1902 103.94 75.9102 103.556 76.3062 102.992V103.652ZM76.3662 100.976C76.3662 101.96 75.6222 102.74 74.6622 102.74C73.7022 102.74 72.9582 101.96 72.9582 100.976C72.9582 100.004 73.7022 99.224 74.6622 99.224C75.6222 99.224 76.3662 100.004 76.3662 100.976ZM82.1511 97.976C80.3511 97.976 79.0191 99.332 79.0191 101.06C79.0191 102.788 80.3511 104.144 82.1511 104.144C83.9511 104.144 85.2831 102.788 85.2831 101.06C85.2831 99.332 83.9511 97.976 82.1511 97.976ZM82.1511 99.248C83.1351 99.248 83.9031 100.052 83.9031 101.06C83.9031 102.068 83.1351 102.872 82.1511 102.872C81.1671 102.872 80.3991 102.068 80.3991 101.06C80.3991 100.052 81.1671 99.248 82.1511 99.248ZM96.5849 99.8C96.5849 97.436 94.7009 95.6 92.3609 95.6H89.6129V104H92.3609C94.7009 104 96.5849 102.164 96.5849 99.8ZM95.1089 99.8C95.1089 101.396 93.9209 102.656 92.3249 102.656H91.0529V96.944H92.3249C93.9209 96.944 95.1089 98.204 95.1089 99.8ZM98.1207 104H101.181C102.969 104 104.109 103.076 104.109 101.576C104.109 100.568 103.581 99.848 102.609 99.524C103.245 99.2 103.605 98.612 103.605 97.844C103.605 96.452 102.513 95.6 100.965 95.6H98.1207V104ZM99.5367 102.764V100.256H101.109C102.033 100.256 102.657 100.724 102.657 101.504C102.657 102.32 102.045 102.764 101.121 102.764H99.5367ZM99.5367 99.068V96.824H100.869C101.649 96.824 102.201 97.22 102.201 97.94C102.201 98.66 101.649 99.068 100.869 99.068H99.5367Z" fill="url(#paint1_linear_2_73)"/>
<g clip-path="url(#clip1_2_73)">
<path d="M75 41.6667L76.23 40.54C76.0738 40.3693 75.8838 40.2329 75.6721 40.1396C75.4603 40.0462 75.2314 39.998 75 39.998C74.7686 39.998 74.5397 40.0462 74.3279 40.1396C74.1162 40.2329 73.9262 40.3693 73.77 40.54L75 41.6667ZM75 85L73.69 86.03C73.846 86.2283 74.0449 86.3886 74.2718 86.4988C74.4987 86.6091 74.7477 86.6663 75 86.6663C75.2523 86.6663 75.5013 86.6091 75.7282 86.4988C75.9551 86.3886 76.154 86.2283 76.31 86.03L75 85ZM65.41 72.7934L64.1 73.8267L65.41 72.7934ZM66.23 51.2367L65 50.1067L66.23 51.23V51.2367ZM83.77 51.2367L85 50.11L83.77 51.2334V51.2367ZM84.59 72.7934L85.9 73.8267L84.59 72.7934ZM76.6667 90V41.6667H73.3333V90H76.6667ZM76.31 83.97L66.72 71.7667L64.1 73.8267L73.69 86.0334L76.31 83.9734V83.97ZM67.4567 52.36L76.2333 42.7934L73.7667 40.54L65 50.1067L67.4533 52.36H67.4567ZM73.77 42.7934L82.5433 52.36L85 50.11L76.23 40.5434L73.7667 42.79L73.77 42.7934ZM83.28 71.7634L73.69 83.97L76.31 86.03L85.9 73.8234L83.28 71.7634V71.7634ZM82.5433 52.3634C84.9452 54.9854 86.3374 58.3754 86.4717 61.9287C86.6061 65.482 85.4737 68.9675 83.2767 71.7634L85.9 73.8234C88.5854 70.4056 89.9691 66.1449 89.8042 61.8015C89.6394 57.458 87.9367 53.3145 85 50.11L82.5433 52.36V52.3634ZM66.72 71.7634C64.5234 68.9671 63.3916 65.4814 63.5266 61.9281C63.6615 58.3748 65.0543 54.985 67.4567 52.3634L65 50.1067C62.0633 53.3111 60.3606 57.4547 60.1958 61.7981C60.0309 66.1415 61.4146 70.4023 64.1 73.82L66.72 71.76V71.7634Z" fill="url(#paint2_linear_2_73)"/>
</g>
</g>
<defs>
<linearGradient id="paint0_linear_2_73" x1="-9.14331" y1="67.0694" x2="167.738" y2="67.719" gradientUnits="userSpaceOnUse">
<stop stop-color="#AA367C"/>
<stop offset="1" stop-color="#4A2FBD"/>
</linearGradient>
<linearGradient id="paint1_linear_2_73" x1="41.3428" y1="98.9426" x2="112.088" y2="99.7221" gradientUnits="userSpaceOnUse">
<stop stop-color="#AA367C"/>
<stop offset="1" stop-color="#4A2FBD"/>
</linearGradient>
<linearGradient id="paint2_linear_2_73" x1="58.3762" y1="62.3554" x2="93.3222" y2="62.4315" gradientUnits="userSpaceOnUse">
<stop stop-color="#AA367C"/>
<stop offset="1" stop-color="#4A2FBD"/>
</linearGradient>
<clipPath id="clip0_2_73">
<rect width="150" height="150" fill="white"/>
</clipPath>
<clipPath id="clip1_2_73">
<rect width="50" height="50" fill="white" transform="translate(50 40)"/>
</clipPath>
</defs>
</svg>
