<svg width="150" height="150" viewBox="0 0 150 150" fill="none" xmlns="http://www.w3.org/2000/svg">
<g clip-path="url(#clip0_2_63)">
<path d="M137.97 51.3985C141.979 49.8959 146.49 51.9221 147.571 56.0649C151.646 71.681 150.59 88.2727 144.438 103.343C137.307 120.816 123.849 134.958 106.751 142.948C89.6529 150.937 70.1715 152.187 52.1926 146.448C34.2138 140.709 19.0596 128.403 9.75301 111.984C0.446491 95.566 -2.32815 76.2425 1.98265 57.8687C6.29344 39.495 17.3727 23.4219 33.0103 12.8559C48.6479 2.28986 67.6941 -1.99234 86.3492 0.863573C102.439 3.32666 117.217 10.943 128.523 22.4606C131.521 25.516 130.943 30.4267 127.595 33.0947C124.246 35.7627 119.401 35.1669 116.32 32.1934C107.509 23.6877 96.233 18.0618 84.0029 16.1895C69.2044 13.924 54.0956 17.3209 41.6907 25.7027C29.2858 34.0844 20.4968 46.8348 17.0772 61.4102C13.6576 75.9852 15.8587 91.3146 23.2412 104.339C30.6239 117.363 42.6454 127.125 56.9075 131.678C71.1696 136.231 86.6242 135.239 100.187 128.901C113.751 122.563 124.426 111.345 130.084 97.4837C134.759 86.0285 135.723 73.4644 132.952 61.5352C131.983 57.3649 133.961 52.9011 137.97 51.3985Z" fill="url(#paint0_linear_2_63)"/>
<path d="M64.3394 102.044C64.8074 103.388 65.9474 104.144 67.3514 104.144C68.8874 104.144 70.1834 103.184 70.1834 101.588C70.1834 100.472 69.5354 99.74 68.2274 99.224L67.1954 98.828C66.5114 98.552 66.1514 98.264 66.1514 97.748C66.1514 97.172 66.6314 96.788 67.3034 96.788C68.0234 96.788 68.5034 97.292 68.7554 97.928L69.9914 97.304C69.5234 96.14 68.5034 95.456 67.2914 95.444C65.8154 95.444 64.6874 96.38 64.6874 97.832C64.6874 98.984 65.4074 99.716 66.6554 100.16L67.6514 100.52C68.3594 100.772 68.7074 101.168 68.7074 101.684C68.7074 102.404 68.0954 102.788 67.3754 102.788C66.5234 102.788 65.9114 102.26 65.6114 101.444L64.3394 102.044ZM79.8033 103.232L78.9393 102.5C79.5153 101.744 79.8753 100.82 79.8753 99.8C79.8753 97.376 77.9313 95.444 75.5193 95.444C73.1073 95.444 71.1633 97.376 71.1633 99.8C71.1633 102.2 73.1073 104.144 75.5193 104.144C76.4433 104.144 77.2953 103.856 78.0153 103.364L78.9753 104.192L79.8033 103.232ZM72.6153 99.8C72.6153 98.144 73.8873 96.812 75.5193 96.812C77.1513 96.812 78.4233 98.144 78.4233 99.8C78.4233 100.472 78.2073 101.084 77.8593 101.576L76.8873 100.748L76.0593 101.684L76.9113 102.416C76.4913 102.644 76.0353 102.776 75.5193 102.776C73.8873 102.776 72.6153 101.444 72.6153 99.8ZM81.4156 95.6V104H85.8076V102.656H82.8556V95.6H81.4156Z" fill="url(#paint1_linear_2_63)"/>
<g clip-path="url(#clip1_2_63)">
<path d="M96.025 78.5341C93.3066 78.4653 91.1998 78.7415 89.4328 79.5008C88.923 79.7077 88.1074 79.7079 88.0395 80.3639C88.3113 80.6401 88.3453 81.0889 88.5832 81.4684C88.9914 82.1587 89.7045 83.0909 90.3502 83.5744C91.0637 84.1266 91.7775 84.6788 92.5248 85.1621C93.8502 85.9907 95.3455 86.4738 96.6367 87.3024C97.3846 87.7853 98.1316 88.4071 98.8793 88.9248C99.2531 89.2006 99.4908 89.6498 99.9668 89.8222V89.7188C99.7287 89.4079 99.6607 88.9593 99.423 88.6141C99.0836 88.2688 98.7434 87.9581 98.4035 87.6129C97.4182 86.2668 96.1949 85.093 94.8697 84.1266C93.7824 83.367 91.4035 82.3315 90.9619 81.0542C90.9619 81.0542 90.9277 81.0198 90.8939 80.9853C91.6414 80.9163 92.5248 80.6401 93.2387 80.4329C94.3939 80.122 95.4473 80.1913 96.6367 79.8805C97.1803 79.7424 97.724 79.5698 98.2676 79.3972V79.0867C97.6563 78.4653 97.2145 77.6369 96.5688 77.05C94.8357 75.5307 92.9326 74.0466 90.9619 72.804C89.9084 72.1135 88.549 71.6647 87.4277 71.078C87.0203 70.8706 86.3404 70.7672 86.1027 70.422C85.4908 69.6627 85.151 68.6617 84.7094 67.7641C83.7242 65.8653 82.7725 63.7597 81.9229 61.7577C81.3115 60.4113 80.9377 59.0649 80.19 57.8224C76.69 51.954 72.8842 48.3984 67.0396 44.9117C65.7822 44.1869 64.2871 43.8762 62.69 43.4966C61.8408 43.4619 60.991 43.393 60.1416 43.3583C59.5979 43.1167 59.0541 42.4609 58.5783 42.1502C56.6418 40.9073 51.6463 38.2151 50.2191 41.7706C49.3016 44.0143 51.5785 46.2234 52.3598 47.3629C52.9379 48.1567 53.6852 49.0542 54.093 49.9518C54.3309 50.5383 54.3986 51.1601 54.6365 51.7813C55.1805 53.2998 55.6898 54.9917 56.4037 56.4071C56.7775 57.1319 57.1852 57.8913 57.6609 58.5472C57.9328 58.9268 58.4084 59.0996 58.5105 59.7208C58.035 60.4113 58.0008 61.447 57.7287 62.3099C56.5055 66.2107 56.9814 71.0434 58.7143 73.9085C59.2578 74.7712 60.5492 76.6704 62.2822 75.9452C63.8115 75.324 63.4717 73.3563 63.9131 71.6303C64.0154 71.2157 63.9475 70.9399 64.1512 70.6637V70.7329C64.627 71.6992 65.1025 72.6315 65.5443 73.598C66.5979 75.2893 68.4326 77.05 69.9617 78.2238C70.7775 78.8448 71.423 79.9151 72.4426 80.2948V80.1911H72.3744C72.1705 79.8803 71.8646 79.7424 71.593 79.5006C70.9814 78.8795 70.3016 78.12 69.826 77.4295C68.399 75.4962 67.1414 73.3561 66.0201 71.1468C65.4766 70.077 65.0006 68.9032 64.559 67.8331C64.3549 67.4184 64.3549 66.7974 64.0152 66.5905C63.5055 67.3498 62.758 68.0057 62.3842 68.9377C61.7389 70.422 61.6707 72.2516 61.4328 74.15C61.2969 74.1849 61.3647 74.15 61.2967 74.2194C60.2096 73.9428 59.8357 72.804 59.4277 71.8373C58.4082 69.3865 58.2383 65.4512 59.1221 62.6206C59.36 61.8956 60.3795 59.6174 59.9717 58.927C59.7678 58.271 59.0879 57.8913 58.7143 57.3736C58.2727 56.7176 57.7967 55.8895 57.491 55.1643C56.6754 53.2311 56.2676 51.0909 55.3842 49.1577C54.9764 48.2601 54.2631 47.3284 53.6852 46.4998C53.0397 45.5678 52.326 44.9117 51.8162 43.8071C51.6465 43.4276 51.4084 42.8061 51.6803 42.3918C51.7482 42.1157 51.884 42.0123 52.1561 41.9432C52.5979 41.5633 53.8553 42.0466 54.2967 42.2538C55.5541 42.7712 56.6074 43.2549 57.6609 43.9797C58.1365 44.325 58.6463 44.9809 59.2578 45.1536H59.9715C61.059 45.395 62.282 45.2226 63.3016 45.5331C65.1027 46.1198 66.7336 46.9829 68.1949 47.9151C72.6465 50.7801 76.316 54.8536 78.7969 59.7208C79.2047 60.5145 79.3744 61.2399 79.7482 62.068C80.4621 63.7597 81.3455 65.4857 82.0588 67.1426C82.7725 68.7649 83.452 70.422 84.4715 71.7684C84.9813 72.493 87.0199 72.873 87.9375 73.2528C88.6172 73.5633 89.6707 73.8397 90.2822 74.2192C91.4375 74.9438 92.5928 75.7728 93.6803 76.5665C94.224 76.9807 95.9229 77.8438 96.025 78.5341V78.5341Z" fill="url(#paint2_linear_2_63)"/>
<path d="M61.3645 48.5361C60.7869 48.5361 60.3793 48.6056 59.9715 48.709V48.778H60.0395C60.3115 49.3304 60.7869 49.7101 61.1266 50.1933C61.3986 50.7455 61.6363 51.298 61.9084 51.8504C61.9422 51.8157 61.9762 51.7814 61.9762 51.7814C62.4522 51.4359 62.6899 50.8838 62.6899 50.0552C62.4859 49.8137 62.452 49.572 62.282 49.3304C62.0783 48.9849 61.6363 48.8125 61.3645 48.5361V48.5361Z" fill="url(#paint3_linear_2_63)"/>
</g>
</g>
<defs>
<linearGradient id="paint0_linear_2_63" x1="-9.14331" y1="67.0694" x2="167.738" y2="67.719" gradientUnits="userSpaceOnUse">
<stop stop-color="#AA367C"/>
<stop offset="1" stop-color="#4A2FBD"/>
</linearGradient>
<linearGradient id="paint1_linear_2_63" x1="41.3428" y1="98.9426" x2="112.088" y2="99.7221" gradientUnits="userSpaceOnUse">
<stop stop-color="#AA367C"/>
<stop offset="1" stop-color="#4A2FBD"/>
</linearGradient>
<linearGradient id="paint2_linear_2_63" x1="46.9594" y1="62.277" x2="105.875" y2="62.494" gradientUnits="userSpaceOnUse">
<stop stop-color="#AA367C"/>
<stop offset="1" stop-color="#4A2FBD"/>
</linearGradient>
<linearGradient id="paint3_linear_2_63" x1="59.8058" y1="50.018" x2="63.0113" y2="50.0277" gradientUnits="userSpaceOnUse">
<stop stop-color="#AA367C"/>
<stop offset="1" stop-color="#4A2FBD"/>
</linearGradient>
<clipPath id="clip0_2_63">
<rect width="150" height="150" fill="white"/>
</clipPath>
<clipPath id="clip1_2_63">
<rect width="50" height="50" fill="white" transform="translate(50 40)"/>
</clipPath>
</defs>
</svg>
