<svg width="150" height="150" viewBox="0 0 150 150" fill="none" xmlns="http://www.w3.org/2000/svg">
<g clip-path="url(#clip0_2_19)">
<path d="M137.97 51.3985C141.979 49.896 146.49 51.9222 147.571 56.0649C151.646 71.681 150.59 88.2727 144.438 103.343C137.307 120.816 123.849 134.958 106.751 142.948C89.6529 150.937 70.1715 152.187 52.1926 146.448C34.2138 140.709 19.0596 128.403 9.75301 111.984C0.446491 95.5661 -2.32815 76.2426 1.98265 57.8688C6.29344 39.4951 17.3727 23.422 33.0103 12.856C48.6479 2.28992 67.6941 -1.99228 86.3492 0.863634C102.439 3.32672 117.217 10.9431 128.523 22.4607C131.521 25.5161 130.943 30.4268 127.595 33.0948C124.246 35.7627 119.401 35.167 116.32 32.1935C107.509 23.6878 96.233 18.0618 84.0029 16.1896C69.2044 13.924 54.0956 17.321 41.6907 25.7027C29.2858 34.0845 20.4968 46.8349 17.0772 61.4102C13.6576 75.9852 15.8587 91.3146 23.2412 104.339C30.6239 117.363 42.6454 127.125 56.9075 131.678C71.1696 136.231 86.6242 135.239 100.187 128.901C113.751 122.563 124.426 111.345 130.084 97.4838C134.759 86.0286 135.723 73.4644 132.952 61.5352C131.983 57.3649 133.961 52.9012 137.97 51.3985Z" fill="url(#paint0_linear_2_19)"/>
<path d="M61.621 100.676H62.269L64.585 104H66.277L63.805 100.556C64.921 100.232 65.701 99.404 65.701 98.156C65.701 96.524 64.513 95.6 62.821 95.6H60.193V104H61.621V100.676ZM61.621 96.896H62.821C63.673 96.896 64.261 97.352 64.261 98.168C64.261 98.984 63.673 99.464 62.821 99.464H61.621V96.896ZM71.1868 102.08C70.8508 102.596 70.4548 102.968 69.6868 102.968C68.8108 102.968 68.0548 102.332 67.9948 101.48H72.5188C72.5308 101.312 72.5308 101.168 72.5308 101.06C72.5308 99.296 71.3188 97.976 69.6028 97.976C67.9108 97.976 66.6148 99.296 66.6148 101.06C66.6148 102.872 67.8868 104.144 69.6748 104.144C70.9228 104.144 71.8348 103.544 72.3268 102.62L71.1868 102.08ZM68.0068 100.472C68.1028 99.8 68.7508 99.116 69.5788 99.116C70.4308 99.116 71.0548 99.692 71.1508 100.472H68.0068ZM78.3537 98.12V98.924C77.9217 98.312 77.1777 97.976 76.3617 97.976C74.7417 97.976 73.4937 99.332 73.4937 101.06C73.4937 102.788 74.7417 104.144 76.3617 104.144C77.1777 104.144 77.9217 103.76 78.3537 103.148V104H79.7217V98.12H78.3537ZM74.8857 101.06C74.8857 100.052 75.6537 99.236 76.6497 99.236C77.6457 99.236 78.4137 100.052 78.4137 101.06C78.4137 102.068 77.6457 102.884 76.6497 102.884C75.6537 102.884 74.8857 102.068 74.8857 101.06ZM81.0757 101.06C81.0757 102.848 82.3477 104.144 84.1717 104.144C84.7477 104.144 85.2877 104 85.7797 103.724V102.344C85.3597 102.632 84.8677 102.872 84.3037 102.872C83.2477 102.872 82.4797 102.08 82.4797 101.06C82.4797 100.04 83.2597 99.248 84.3037 99.248C84.8077 99.248 85.2877 99.428 85.7557 99.776V98.396C85.2877 98.12 84.7717 97.976 84.1837 97.976C82.3597 97.976 81.0757 99.296 81.0757 101.06ZM87.489 96.38V98.12H86.613V99.296H87.489V102.188C87.489 103.424 88.185 104.144 89.373 104.144C89.853 104.144 90.201 104.06 90.429 103.928V102.692C90.249 102.824 90.009 102.872 89.781 102.872C89.157 102.872 88.869 102.596 88.869 101.936V99.296H90.429V98.12H88.869V96.38H87.489Z" fill="url(#paint1_linear_2_19)"/>
<path d="M100 64.3521C100 61.0396 95.8521 57.9 89.4917 55.9542C90.9604 49.473 90.3083 44.3146 87.4333 42.6625C86.7367 42.2724 85.9483 42.076 85.15 42.0938V44.3646C85.6187 44.3646 85.9958 44.4584 86.3125 44.6313C87.6979 45.4271 88.3 48.4521 87.8312 52.3459C87.7187 53.3042 87.5354 54.3125 87.3104 55.3417C85.1805 54.8285 83.0188 54.4575 80.8396 54.2313C79.5414 52.4402 78.125 50.7378 76.6 49.1355C79.9229 46.048 83.0417 44.3563 85.1625 44.3563V42.0834C82.3583 42.0834 78.6896 44.0813 74.9792 47.5459C71.2708 44.1042 67.6 42.125 64.7979 42.125V44.3959C66.9083 44.3959 70.0375 46.0792 73.3604 49.1459C71.9333 50.6459 70.5063 52.3459 69.15 54.2313C66.9663 54.455 64.8007 54.8295 62.6687 55.3521C62.4434 54.3767 62.2661 53.3908 62.1375 52.398C61.6583 48.5021 62.25 45.4771 63.6271 44.673C63.9312 44.4896 64.3292 44.4063 64.7979 44.4063V42.1355C63.9437 42.1355 63.1667 42.3188 62.4958 42.7042C59.6312 44.3563 58.9896 49.5021 60.4667 55.9646C54.1271 57.923 50 61.05 50 64.3521C50 67.6646 54.1479 70.8042 60.5083 72.748C59.0396 79.2313 59.6917 84.3896 62.5667 86.0396C63.2292 86.4271 64.0042 86.6105 64.8583 86.6105C67.6625 86.6105 71.3313 84.6125 75.0417 81.148C78.75 84.5917 82.4187 86.5688 85.2229 86.5688C86.0273 86.5858 86.8217 86.3888 87.525 85.998C90.3896 84.348 91.0312 79.2021 89.5542 72.7396C95.8729 70.7938 100 67.6542 100 64.3521ZM86.7292 57.5542C86.3333 58.9164 85.8745 60.2595 85.3542 61.5792C84.5024 59.9225 83.5672 58.31 82.5521 56.748C84 56.9625 85.3958 57.2271 86.7312 57.5542H86.7292ZM82.0625 68.4084C81.2994 69.7406 80.4799 71.0397 79.6062 72.3021C76.5484 72.5716 73.473 72.5751 70.4146 72.3125C68.6603 69.8067 67.1261 67.1537 65.8292 64.3834C67.1241 61.6065 68.6518 58.9442 70.3958 56.425C73.4529 56.155 76.5276 56.1508 79.5854 56.4125C80.4312 57.625 81.2583 58.9209 82.0521 60.2875C82.8271 61.6209 83.5312 62.975 84.1729 64.3417C83.5241 65.725 82.8201 67.0816 82.0625 68.4084V68.4084ZM85.3542 67.0834C85.9042 68.448 86.375 69.8146 86.7604 71.1396C85.4271 71.4667 84.0187 71.7417 82.5625 71.9542C83.5734 70.378 84.5051 68.7524 85.3542 67.0834V67.0834ZM75.0208 77.9584C74.0729 76.9792 73.125 75.8896 72.1875 74.6959C73.1042 74.7375 74.0417 74.7688 74.9896 74.7688C75.9479 74.7688 76.8958 74.748 77.8229 74.6959C76.9062 75.8896 75.9583 76.9792 75.0208 77.9584ZM67.4375 71.9542C66.0328 71.7507 64.6383 71.4823 63.2583 71.15C63.6354 69.8355 64.1042 68.4792 64.6333 67.125C65.0521 67.9375 65.4917 68.7542 65.9708 69.5709C66.45 70.3855 66.9375 71.1813 67.4375 71.9542ZM74.9687 50.7459C75.9167 51.725 76.8646 52.8146 77.8021 54.0084C76.8854 53.9667 75.9479 53.9355 75 53.9355C74.0417 53.9355 73.0937 53.9563 72.1667 54.0084C73.0833 52.8146 74.0312 51.725 74.9687 50.7459ZM67.4271 56.75C66.4164 58.3228 65.4847 59.945 64.6354 61.6105C64.1004 60.2823 63.6311 58.9285 63.2292 57.5542C64.5625 57.2375 65.9708 56.9625 67.4271 56.75ZM58.2042 69.5084C54.5958 67.9709 52.2625 65.9521 52.2625 64.3521C52.2625 62.7521 54.5958 60.723 58.2042 59.1959C59.0792 58.8188 60.0375 58.4813 61.0271 58.1667C61.6083 60.1625 62.3729 62.2417 63.3187 64.373C62.4258 66.3775 61.6705 68.4406 61.0583 70.548C60.0905 70.2483 59.138 69.9014 58.2042 69.5084V69.5084ZM63.6875 84.0709C62.3021 83.2792 61.7 80.25 62.1687 76.3584C62.2812 75.4 62.4646 74.3896 62.6896 73.3605C64.6854 73.85 66.8667 74.2271 69.1604 74.473C70.4587 76.264 71.875 77.9664 73.4 79.5688C70.0771 82.6563 66.9583 84.348 64.8375 84.348C64.4374 84.3523 64.0424 84.2579 63.6875 84.073V84.0709ZM87.8625 76.3063C88.3417 80.2 87.75 83.2271 86.3729 84.0313C86.0687 84.2146 85.6708 84.2959 85.2021 84.2959C83.0917 84.2959 79.9625 82.6146 76.6396 79.5459C78.1582 77.9502 79.565 76.2517 80.85 74.4625C83.0337 74.2389 85.1993 73.8643 87.3312 73.3417C87.5667 74.3709 87.7479 75.3584 87.8625 76.3063V76.3063ZM91.7854 69.5084C90.9104 69.8855 89.9521 70.223 88.9625 70.5375C88.3395 68.4195 87.5739 66.346 86.6708 64.3313C87.6083 62.2125 88.3604 60.1438 88.9312 58.1563C89.9021 58.457 90.8581 58.8039 91.7958 59.1959C95.4042 60.7334 97.7375 62.7521 97.7375 64.3521C97.7271 65.9521 95.3937 67.9813 91.7854 69.5084V69.5084Z" fill="url(#paint2_linear_2_19)"/>
<path d="M74.9896 69.0105C76.225 69.0105 77.4099 68.5197 78.2835 67.6461C79.1571 66.7725 79.6479 65.5876 79.6479 64.3522C79.6479 63.1167 79.1571 61.9318 78.2835 61.0582C77.4099 60.1846 76.225 59.6938 74.9896 59.6938C73.7541 59.6938 72.5692 60.1846 71.6956 61.0582C70.822 61.9318 70.3312 63.1167 70.3312 64.3522C70.3312 65.5876 70.822 66.7725 71.6956 67.6461C72.5692 68.5197 73.7541 69.0105 74.9896 69.0105V69.0105Z" fill="url(#paint3_linear_2_19)"/>
</g>
<defs>
<linearGradient id="paint0_linear_2_19" x1="-9.14331" y1="67.0694" x2="167.738" y2="67.719" gradientUnits="userSpaceOnUse">
<stop stop-color="#AA367C"/>
<stop offset="1" stop-color="#4A2FBD"/>
</linearGradient>
<linearGradient id="paint1_linear_2_19" x1="46.9523" y1="98.9426" x2="105.909" y2="99.4839" gradientUnits="userSpaceOnUse">
<stop stop-color="#AA367C"/>
<stop offset="1" stop-color="#4A2FBD"/>
</linearGradient>
<linearGradient id="paint2_linear_2_19" x1="46.9523" y1="61.9928" x2="105.912" y2="62.2359" gradientUnits="userSpaceOnUse">
<stop stop-color="#AA367C"/>
<stop offset="1" stop-color="#4A2FBD"/>
</linearGradient>
<linearGradient id="paint3_linear_2_19" x1="69.7634" y1="63.8596" x2="80.7496" y2="63.9" gradientUnits="userSpaceOnUse">
<stop stop-color="#AA367C"/>
<stop offset="1" stop-color="#4A2FBD"/>
</linearGradient>
<clipPath id="clip0_2_19">
<rect width="150" height="150" fill="white"/>
</clipPath>
</defs>
</svg>
