<svg width="150" height="150" viewBox="0 0 150 150" fill="none" xmlns="http://www.w3.org/2000/svg">
<g clip-path="url(#clip0_2_41)">
<path d="M137.97 51.3985C141.979 49.896 146.49 51.9222 147.571 56.0649C151.646 71.681 150.59 88.2727 144.438 103.343C137.307 120.816 123.849 134.958 106.751 142.948C89.6529 150.937 70.1715 152.187 52.1927 146.448C34.2138 140.709 19.0596 128.403 9.75303 111.984C0.446506 95.5661 -2.32813 76.2426 1.98266 57.8688C6.29346 39.4951 17.3727 23.422 33.0103 12.856C48.6479 2.28992 67.6941 -1.99228 86.3492 0.863634C102.439 3.32672 117.217 10.9431 128.523 22.4607C131.521 25.5161 130.943 30.4268 127.595 33.0948C124.246 35.7627 119.401 35.167 116.32 32.1935C107.509 23.6878 96.233 18.0618 84.0029 16.1896C69.2044 13.924 54.0956 17.321 41.6907 25.7027C29.2858 34.0845 20.4969 46.8349 17.0772 61.4102C13.6576 75.9852 15.8587 91.3146 23.2413 104.339C30.6239 117.363 42.6455 127.125 56.9075 131.678C71.1696 136.231 86.6242 135.239 100.187 128.901C113.751 122.563 124.426 111.345 130.084 97.4838C134.759 86.0286 135.723 73.4644 132.952 61.5352C131.983 57.3649 133.961 52.9012 137.97 51.3985Z" fill="url(#paint0_linear_2_41)"/>
<path d="M55.3649 95.6V104H59.7569V102.656H56.8049V95.6H55.3649ZM65.2873 98.12V98.924C64.8553 98.312 64.1113 97.976 63.2953 97.976C61.6753 97.976 60.4273 99.332 60.4273 101.06C60.4273 102.788 61.6753 104.144 63.2953 104.144C64.1113 104.144 64.8553 103.76 65.2873 103.148V104H66.6553V98.12H65.2873ZM61.8193 101.06C61.8193 100.052 62.5873 99.236 63.5833 99.236C64.5793 99.236 65.3473 100.052 65.3473 101.06C65.3473 102.068 64.5793 102.884 63.5833 102.884C62.5873 102.884 61.8193 102.068 61.8193 101.06ZM71.7773 98.036C71.7533 98.012 71.6693 98 71.5133 98C70.7453 98 70.0493 98.444 69.7613 99.128V98.12H68.3933V104H69.7733V101.408C69.7733 100.196 70.3973 99.404 71.4173 99.404C71.5973 99.404 71.7173 99.416 71.7773 99.452V98.036ZM77.2287 98.12V98.924C76.7967 98.312 76.0527 97.976 75.2367 97.976C73.6167 97.976 72.3687 99.332 72.3687 101.06C72.3687 102.788 73.6167 104.144 75.2367 104.144C76.0527 104.144 76.7967 103.76 77.2287 103.148V104H78.5967V98.12H77.2287ZM73.7607 101.06C73.7607 100.052 74.5287 99.236 75.5247 99.236C76.5207 99.236 77.2887 100.052 77.2887 101.06C77.2887 102.068 76.5207 102.884 75.5247 102.884C74.5287 102.884 73.7607 102.068 73.7607 101.06ZM82.0627 104H83.2867L85.7107 98.12H84.2707L82.6867 102.2L81.1147 98.12H79.6387L82.0627 104ZM90.7336 102.08C90.3976 102.596 90.0016 102.968 89.2336 102.968C88.3576 102.968 87.6016 102.332 87.5416 101.48H92.0656C92.0776 101.312 92.0776 101.168 92.0776 101.06C92.0776 99.296 90.8656 97.976 89.1496 97.976C87.4576 97.976 86.1616 99.296 86.1616 101.06C86.1616 102.872 87.4336 104.144 89.2216 104.144C90.4696 104.144 91.3816 103.544 91.8736 102.62L90.7336 102.08ZM87.5536 100.472C87.6496 99.8 88.2976 99.116 89.1256 99.116C89.9776 99.116 90.6016 99.692 90.6976 100.472H87.5536ZM93.366 95.6V104H94.758V95.6H93.366Z" fill="url(#paint1_linear_2_41)"/>
<g clip-path="url(#clip1_2_41)">
<path d="M99.2594 51.3125C99.275 51.3781 99.2844 51.4515 99.2844 51.5156V62.25C99.2847 62.387 99.2488 62.5216 99.1802 62.6402C99.1115 62.7588 99.0127 62.857 98.8938 62.925L89.8844 68.1172V78.3953C89.8847 78.5323 89.8488 78.6669 89.7802 78.7855C89.7115 78.9041 89.6127 79.0023 89.4938 79.0703L70.6875 89.8937C70.6436 89.9181 70.5969 89.937 70.5484 89.95L70.5 89.975C70.3692 90.0078 70.2323 90.0078 70.1016 89.975C70.0818 89.9691 70.0629 89.9607 70.0453 89.95C70.0002 89.936 69.9567 89.9171 69.9156 89.8937L51.1172 79.0703C50.9974 79.0026 50.8975 78.9046 50.8276 78.7861C50.7577 78.6677 50.7201 78.5329 50.7188 78.3953V46.1937C50.7188 46.1281 50.7344 46.0547 50.7516 45.9906C50.7594 45.9656 50.7672 45.95 50.7766 45.925L50.825 45.8031C50.8328 45.7781 50.8578 45.7625 50.8734 45.7375L50.9469 45.639C50.9732 45.6228 50.9978 45.604 51.0203 45.5828C51.0531 45.5578 51.0766 45.5344 51.1094 45.5172L60.5094 40.1047C60.6282 40.0364 60.7629 40.0005 60.9 40.0005C61.0371 40.0005 61.1718 40.0364 61.2906 40.1047L70.6984 45.5172C70.7313 45.5328 70.7547 45.5578 70.7797 45.5828L70.8609 45.639C70.885 45.6704 70.9069 45.7033 70.9266 45.7375C70.9422 45.7531 70.9672 45.7781 70.9828 45.8031L71.0313 45.925C71.0391 45.95 71.0563 45.9656 71.0563 45.9906C71.0799 46.0556 71.091 46.1246 71.0891 46.1937V66.3031L78.9172 61.7953V51.5172C78.9201 51.4248 78.9397 51.3338 78.975 51.2484L79.0234 51.1265C79.0391 51.0937 79.0641 51.0781 79.0797 51.0531C79.1047 51.0203 79.1203 50.9875 79.1453 50.964C79.1703 50.9406 79.2016 50.9234 79.2266 50.9078C79.25 50.8818 79.2774 50.8596 79.3078 50.8422L88.7156 45.4297C88.8332 45.3576 88.9684 45.3194 89.1063 45.3194C89.2441 45.3194 89.3793 45.3576 89.4969 45.4297L98.8969 50.8422C98.9297 50.8578 98.9531 50.8828 98.9859 50.9078C99.0109 50.9234 99.0344 50.9406 99.0594 50.964C99.0844 50.9875 99.1078 51.0203 99.1328 51.0531C99.1484 51.0781 99.1734 51.0937 99.1813 51.1265C99.2063 51.1672 99.2141 51.2078 99.2297 51.2484C99.2453 51.264 99.2547 51.289 99.2625 51.314L99.2594 51.3125ZM97.7125 61.7937V52.875L94.425 54.7625L89.8844 57.3828V66.3015L97.7125 61.7937ZM88.3219 77.939V69.0109L83.8453 71.5578L71.0844 78.85V87.8594L88.3219 77.939ZM52.2781 47.5515V77.939L69.5141 87.8594V78.85L60.5047 73.7469C60.4719 73.7312 60.4484 73.7062 60.4234 73.6812C60.3984 73.6656 60.3672 73.6484 60.35 73.625H60.3422C60.3172 73.6 60.3016 73.5687 60.2766 73.5437C60.2609 73.5187 60.2359 73.4953 60.2203 73.4625C60.2021 73.4318 60.1884 73.3986 60.1797 73.364C60.1641 73.3312 60.1469 73.3078 60.1391 73.275C60.1313 73.2422 60.1234 73.2015 60.1234 73.1609C60.1156 73.1281 60.1078 73.1047 60.1078 73.0719V52.0594L55.5672 49.439L52.2781 47.5515ZM60.8969 41.6844L53.0688 46.1922L60.8969 50.7L68.725 46.1922L60.8969 41.6844ZM64.9734 69.8265L69.5141 67.2062V47.5531L66.2266 49.4406L61.6781 52.0609V71.714L64.9734 69.8265ZM89.1031 47.0062L81.2656 51.514L89.1031 56.0219L96.9313 51.514L89.1031 47.0062ZM88.3219 57.3828L80.4844 52.875V61.7937L85.025 64.414L88.3203 66.3015L88.3219 57.3828ZM70.2969 77.4922L87.525 67.6609L79.7047 63.1531L62.4844 73.0656L70.2969 77.4922Z" fill="url(#paint2_linear_2_41)"/>
</g>
</g>
<defs>
<linearGradient id="paint0_linear_2_41" x1="-9.14329" y1="67.0694" x2="167.738" y2="67.719" gradientUnits="userSpaceOnUse">
<stop stop-color="#AA367C"/>
<stop offset="1" stop-color="#4A2FBD"/>
</linearGradient>
<linearGradient id="paint1_linear_2_41" x1="46.9523" y1="98.9426" x2="105.909" y2="99.4839" gradientUnits="userSpaceOnUse">
<stop stop-color="#AA367C"/>
<stop offset="1" stop-color="#4A2FBD"/>
</linearGradient>
<linearGradient id="paint2_linear_2_41" x1="47.7585" y1="62.3566" x2="105.027" y2="62.5609" gradientUnits="userSpaceOnUse">
<stop stop-color="#AA367C"/>
<stop offset="1" stop-color="#4A2FBD"/>
</linearGradient>
<clipPath id="clip0_2_41">
<rect width="150" height="150" fill="white"/>
</clipPath>
<clipPath id="clip1_2_41">
<rect width="50" height="50" fill="white" transform="translate(50 40)"/>
</clipPath>
</defs>
</svg>
