<svg width="150" height="150" viewBox="0 0 150 150" fill="none" xmlns="http://www.w3.org/2000/svg">
<g clip-path="url(#clip0_1_2)">
<path d="M137.97 51.3985C141.979 49.8959 146.49 51.9221 147.571 56.0649C151.646 71.681 150.59 88.2727 144.438 103.343C137.307 120.816 123.849 134.958 106.751 142.948C89.6529 150.937 70.1715 152.187 52.1926 146.448C34.2138 140.709 19.0596 128.403 9.75301 111.984C0.446491 95.566 -2.32815 76.2425 1.98265 57.8687C6.29344 39.495 17.3727 23.4219 33.0103 12.8559C48.6479 2.28986 67.6941 -1.99234 86.3492 0.863572C102.439 3.32666 117.217 10.943 128.523 22.4606C131.521 25.516 130.943 30.4267 127.595 33.0947C124.246 35.7627 119.401 35.1669 116.32 32.1934C107.509 23.6877 96.233 18.0618 84.0029 16.1895C69.2044 13.924 54.0956 17.3209 41.6907 25.7027C29.2858 34.0844 20.4968 46.8348 17.0772 61.4102C13.6576 75.9852 15.8587 91.3146 23.2412 104.339C30.6239 117.363 42.6454 127.125 56.9075 131.678C71.1696 136.231 86.6242 135.239 100.187 128.901C113.751 122.563 124.426 111.345 130.084 97.4837C134.759 86.0285 135.723 73.4644 132.952 61.5352C131.983 57.3649 133.961 52.9011 137.97 51.3985Z" fill="url(#paint0_linear_1_2)"/>
<g clip-path="url(#clip1_1_2)">
<path d="M75 40C61.1875 40 50 51.4705 50 65.6323C50 76.9747 57.1562 86.5547 67.0937 89.951C68.3437 90.1753 68.8125 89.4063 68.8125 88.7335C68.8125 88.1247 68.7813 86.1062 68.7813 83.9595C62.5 85.145 60.875 82.3895 60.375 80.9477C60.0937 80.2107 58.875 77.9359 57.8125 77.3271C56.9375 76.8465 55.6875 75.661 57.7813 75.629C59.75 75.5969 61.1563 77.4873 61.625 78.2563C63.875 82.1332 67.4688 81.0438 68.9063 80.3709C69.125 78.7048 69.7812 77.5834 70.5 76.9426C64.9375 76.3018 59.125 74.091 59.125 64.2866C59.125 61.4991 60.0938 59.1922 61.6875 57.398C61.4375 56.7571 60.5625 54.1298 61.9375 50.6054C61.9375 50.6054 64.0313 49.9325 68.8125 53.2327C70.8125 52.656 72.9375 52.3676 75.0625 52.3676C77.1875 52.3676 79.3125 52.656 81.3125 53.2327C86.0938 49.9005 88.1875 50.6054 88.1875 50.6054C89.5625 54.1298 88.6875 56.7571 88.4375 57.398C90.0313 59.1922 91 61.4671 91 64.2866C91 74.1231 85.1563 76.3018 79.5938 76.9426C80.5 77.7436 81.2813 79.2816 81.2813 81.6846C81.2813 85.1129 81.25 87.8684 81.25 88.7335C81.25 89.4063 81.7188 90.2074 82.9688 89.951C87.932 88.2336 92.2448 84.9634 95.3001 80.6009C98.3553 76.2383 99.9991 71.0031 100 65.6323C100 51.4705 88.8125 40 75 40Z" fill="url(#paint1_linear_1_2)"/>
</g>
<path d="M64.203 97.592C63.531 96.284 62.151 95.444 60.519 95.444C58.131 95.444 56.175 97.4 56.175 99.8C56.175 102.2 58.095 104.144 60.507 104.144C62.895 104.144 64.575 102.344 64.575 99.992V99.452H60.303V100.712H63.039C62.847 101.912 61.851 102.788 60.519 102.788C58.899 102.788 57.639 101.444 57.639 99.8C57.639 98.144 58.911 96.812 60.507 96.812C61.575 96.812 62.451 97.328 62.919 98.24L64.203 97.592ZM67.3478 104V98.12H65.9558V104H67.3478ZM67.5038 96.404C67.5038 95.936 67.1318 95.54 66.6398 95.54C66.1718 95.54 65.7878 95.924 65.7878 96.404C65.7878 96.872 66.1718 97.256 66.6398 97.256C67.1318 97.256 67.5038 96.872 67.5038 96.404ZM69.325 96.38V98.12H68.449V99.296H69.325V102.188C69.325 103.424 70.021 104.144 71.209 104.144C71.689 104.144 72.037 104.06 72.265 103.928V102.692C72.085 102.824 71.845 102.872 71.617 102.872C70.993 102.872 70.705 102.596 70.705 101.936V99.296H72.265V98.12H70.705V96.38H69.325ZM74.883 100.904C74.883 99.896 75.435 99.26 76.263 99.26C77.115 99.26 77.571 99.812 77.571 100.724V104H78.963V100.46C78.963 98.924 78.123 97.976 76.683 97.976C75.855 97.976 75.255 98.336 74.883 98.9V95.6H73.491V104H74.883V100.904ZM84.5408 101.216C84.5408 102.224 84.0008 102.86 83.1728 102.86C82.3568 102.86 81.9008 102.308 81.9008 101.396V98.12H80.5088V101.66C80.5088 103.196 81.3488 104.144 82.7528 104.144C83.5688 104.144 84.1688 103.784 84.5408 103.22V104H85.9328V98.12H84.5408V101.216ZM89.0389 104V103.196C89.4709 103.808 90.2149 104.144 91.0309 104.144C92.6509 104.144 93.8989 102.788 93.8989 101.06C93.8989 99.296 92.6509 97.976 91.0309 97.976C90.2149 97.976 89.4709 98.348 89.0389 98.96V95.6H87.6589V104H89.0389ZM92.5069 101.06C92.5069 102.068 91.7389 102.884 90.7429 102.884C89.7469 102.884 88.9789 102.068 88.9789 101.06C88.9789 100.052 89.7469 99.236 90.7429 99.236C91.7389 99.236 92.5069 100.052 92.5069 101.06Z" fill="url(#paint2_linear_1_2)"/>
</g>
<defs>
<linearGradient id="paint0_linear_1_2" x1="-9.14331" y1="67.0694" x2="167.738" y2="67.719" gradientUnits="userSpaceOnUse">
<stop stop-color="#AA367C"/>
<stop offset="1" stop-color="#4A2FBD"/>
</linearGradient>
<linearGradient id="paint1_linear_1_2" x1="46.9523" y1="62.3565" x2="105.913" y2="62.573" gradientUnits="userSpaceOnUse">
<stop stop-color="#AA367C"/>
<stop offset="1" stop-color="#4A2FBD"/>
</linearGradient>
<linearGradient id="paint2_linear_1_2" x1="46.9523" y1="98.9426" x2="105.909" y2="99.4839" gradientUnits="userSpaceOnUse">
<stop stop-color="#AA367C"/>
<stop offset="1" stop-color="#4A2FBD"/>
</linearGradient>
<clipPath id="clip0_1_2">
<rect width="150" height="150" fill="white"/>
</clipPath>
<clipPath id="clip1_1_2">
<rect width="50" height="50" fill="white" transform="translate(50 40)"/>
</clipPath>
</defs>
</svg>
